<?xml version="1.0" standalone="no"?>
<!DOCTYPE svg PUBLIC "-//W3C//DTD SVG 20010904//EN" "http://www.w3.org/TR/2001/REC-SVG-20010904/DTD/svg10.dtd">
<!-- Created using Karbon, part of Calligra: http://www.calligra.org/karbon -->
<svg xmlns="http://www.w3.org/2000/svg" xmlns:xlink="http://www.w3.org/1999/xlink" width="612.001pt" height="792.001pt">
<defs/>
<g id="Layer">
  <path id="shape0" transform="matrix(1 0 0.0033351 1 11.4948 6.64358)" fill="#000000" fill-rule="evenodd" stroke="#000000" stroke-width="1.25000000000" stroke-linecap="square" stroke-linejoin="miter" stroke-miterlimit="2.00000000000" d="M589.824 396.16C560.131 192.775 533.112 23.5594 379.178 0C212.121 0 155.032 224.374 154.17 377.836C18.1111 567.327 -91.1842 717.006 112.554 591.185C113.781 813.02 250.767 966.22 381.034 966.22C517.082 966.22 648.152 799.118 627.975 587.244C754.599 685.54 825.758 692.414 589.824 396.16Z"/>
  <path id="shape1" transform="matrix(1 0 0.0033351 1 156.102 307.915)" fill="#ffffff" fill-rule="evenodd" stroke="#000000" stroke-width="1.25000000000" stroke-linecap="square" stroke-linejoin="miter" stroke-miterlimit="2.00000000000" d="M423.712 304.74C423.712 136.437 328.861 1.03056e-14 211.856 0C94.8511 -1.03056e-14 1.4329e-14 136.437 0 304.74C-1.4329e-14 473.043 94.8511 609.48 211.856 609.48C328.861 609.48 423.712 473.043 423.712 304.74"/>
  <path id="shape2" transform="matrix(1 0 0.0033351 1 376.73 184.574)" fill="#ffffff" fill-rule="evenodd" stroke="#000000" stroke-width="6.29292428760" stroke-linecap="square" stroke-linejoin="miter" stroke-miterlimit="1.98425540600" d="M156.375 93.3763C156.375 41.806 121.369 3.15777e-15 78.1876 0C35.0058 -3.15777e-15 5.28824e-15 41.806 0 93.3763C-5.28824e-15 144.947 35.0058 186.753 78.1876 186.753C121.369 186.753 156.375 144.947 156.375 93.3763"/>
  <path id="shape3" transform="matrix(1 0 0.0033351 1 231.541 158.112)" fill="#ffffff" fill-rule="evenodd" stroke="#000000" stroke-width="6.29292428760" stroke-linecap="square" stroke-linejoin="miter" stroke-miterlimit="1.98425540600" d="M147.177 125.372C147.177 56.1311 114.23 4.2398e-15 73.5883 0C32.9466 -4.2398e-15 4.97717e-15 56.1311 0 125.372C-4.97717e-15 194.614 32.9466 250.745 73.5883 250.745C114.23 250.745 147.177 194.614 147.177 125.372"/>
  <path id="shape4" transform="matrix(1 0 0.0033351 1 395.373 258.272)" fill="#000000" fill-rule="evenodd" stroke="#000000" stroke-width="1.25000000000" stroke-linecap="square" stroke-linejoin="miter" stroke-miterlimit="2.00000000000" d="M44.6786 44.4027C44.6786 19.8798 34.677 1.5016e-15 22.3393 0C10.0016 -1.5016e-15 1.51093e-15 19.8798 0 44.4027C-1.51093e-15 68.9256 10.0016 88.8054 22.3393 88.8054C34.677 88.8054 44.6786 68.9256 44.6786 44.4027"/>
  <path id="shape5" transform="matrix(1 0 0.0033351 1 312.578 255.661)" fill="#000000" fill-rule="evenodd" stroke="#000000" stroke-width="1.25000000000" stroke-linecap="square" stroke-linejoin="miter" stroke-miterlimit="2.00000000000" d="M47.3068 45.7087C47.3068 20.4645 36.7168 1.54576e-15 23.6534 0C10.59 -1.54576e-15 1.59981e-15 20.4645 0 45.7087C-1.59981e-15 70.9529 10.59 91.4173 23.6534 91.4173C36.7168 91.4173 47.3068 70.9529 47.3068 45.7087"/>
  <path id="shape6" transform="matrix(1 0 0.0033351 1 300.546 338.36)" fill="#ffe600" fill-rule="evenodd" stroke="#000000" stroke-width="7.71024957760" stroke-linecap="square" stroke-linejoin="miter" stroke-miterlimit="1.98425540600" d="M130.32 78.7338C191.465 13.1728 118.767 1.34326 69.2307 0.0425733C35.6312 -1.25811 -27.7149 27.2955 13.4539 78.7338C36.0303 106.76 50.2395 131.412 71.8871 148.32C97.5187 118.405 107.744 109.361 130.32 78.7338Z"/>
  <path id="shape7" transform="matrix(1 0 0.0033351 1 230.097 103.149)" fill="none" stroke="#525252" stroke-width="1.41732529000" stroke-linecap="butt" stroke-linejoin="miter" stroke-miterlimit="1.98425540600" d="M0 82.1775C14.787 43.2876 32.4805 18.1947 53.2604 6.06915C74.0407 -6.05639 109.392 0.852806 123.752 19.11C138.111 37.3672 157.692 92.1391 161.609 89.5306C165.525 86.9226 174.663 59.5368 198.16 45.1918C221.657 30.8468 266.04 37.3672 289.537 67.3612C305.203 87.3571 312.6 103.007 311.73 114.308"/>
  <path id="shape8" transform="matrix(0.998088 0.0617899 -0.0594036 0.998238 102.016 806.589)" fill="#fbff00" fill-rule="evenodd" stroke="#000000" stroke-width="7.71024957760" stroke-linecap="square" stroke-linejoin="miter" stroke-miterlimit="1.98425540600" d="M295.879 156.127C295.879 80.0449 220.028 0 137.923 0C55.8182 0 -19.5796 90.2556 4.57832 177.359C60.3272 178.132 57.6763 174.495 139.782 174.495C225.603 165.311 249.421 167.922 295.879 156.127Z"/>
  <path id="shape9" transform="matrix(0.99869 0.0511394 -0.0485895 0.998823 433.583 810.356)" fill="#fbff00" fill-rule="evenodd" stroke="#000000" stroke-width="7.71024957760" stroke-linecap="square" stroke-linejoin="miter" stroke-miterlimit="1.98425540600" d="M295.873 154.411C295.873 79.1652 220.023 0 137.921 0C55.8169 0 -19.5792 89.2635 4.57823 175.409C60.3258 176.175 57.6749 172.577 139.779 172.577C225.598 163.495 249.416 166.076 295.873 154.411Z"/>
 </g>
</svg>
