<?xml version="1.0" encoding="UTF-8" standalone="no"?>
<!-- Created with Inkscape (http://www.inkscape.org/) -->

<svg
   xmlns:dc="http://purl.org/dc/elements/1.1/"
   xmlns:cc="http://creativecommons.org/ns#"
   xmlns:rdf="http://www.w3.org/1999/02/22-rdf-syntax-ns#"
   xmlns:svg="http://www.w3.org/2000/svg"
   xmlns="http://www.w3.org/2000/svg"
   xmlns:sodipodi="http://sodipodi.sourceforge.net/DTD/sodipodi-0.dtd"
   xmlns:inkscape="http://www.inkscape.org/namespaces/inkscape"
   width="210mm"
   height="297mm"
   viewBox="0 0 210 297"
   version="1.1"
   id="svg8"
   inkscape:version="0.92.2 5c3e80d, 2017-08-06"
   sodipodi:docname="drawing.svg">
  <defs
     id="defs2" />
  <sodipodi:namedview
     id="base"
     pagecolor="#ffffff"
     bordercolor="#666666"
     borderopacity="1.0"
     inkscape:pageopacity="0.0"
     inkscape:pageshadow="2"
     inkscape:zoom="0.35"
     inkscape:cx="-146.87787"
     inkscape:cy="584.2598"
     inkscape:document-units="mm"
     inkscape:current-layer="layer1"
     showgrid="false"
     inkscape:window-width="1304"
     inkscape:window-height="741"
     inkscape:window-x="62"
     inkscape:window-y="27"
     inkscape:window-maximized="1" />
  <metadata
     id="metadata5">
    <rdf:RDF>
      <cc:Work
         rdf:about="">
        <dc:format>image/svg+xml</dc:format>
        <dc:type
           rdf:resource="http://purl.org/dc/dcmitype/StillImage" />
        <dc:title></dc:title>
      </cc:Work>
    </rdf:RDF>
  </metadata>
  <g
     inkscape:label="Layer 1"
     inkscape:groupmode="layer"
     id="layer1">
    <g
       id="g4752" />
    <g
       id="g4827"
       transform="translate(0.75595905,-7.5595233)">
      <path
         style="fill:#1a1a1a;stroke-width:0.30238095"
         d="m 150.89334,277.6325 c 0.003,-0.3243 0.20988,-1.54214 0.45997,-2.70631 1.86021,-8.65918 2.59105,-19.03702 2.00898,-28.52757 -1.09649,-17.87837 -5.36446,-31.78638 -13.52983,-44.08956 -2.32253,-3.49948 -3.61216,-4.71566 -6.69828,-6.3168 -2.76435,-1.43419 -5.40849,-0.89626 -8.35856,1.7005 -3.02676,2.66426 -3.98622,7.22543 -2.28477,10.86152 1.07614,2.29977 3.19365,4.33838 5.34412,5.145 1.43102,0.53677 2.07987,0.61426 3.70074,0.44199 1.93578,-0.20575 1.95741,-0.19998 1.43144,0.38148 -1.19687,1.32318 -5.43612,1.72442 -7.63025,0.72221 -2.45113,-1.11961 -4.76351,-4.42517 -5.75367,-8.22488 -1.40822,-5.40406 0.53579,-11.17174 4.56106,-13.53215 0.50407,-0.29559 0.52357,-0.38681 0.13679,-0.64005 -0.24808,-0.16243 -0.72433,-0.24129 -1.05833,-0.17524 -0.334,0.066 -1.89835,0.2038 -3.47634,0.3061 -3.85035,0.24963 -8.16223,1.74287 -18.224,6.31111 -2.701432,1.22651 -5.864198,2.59752 -7.028364,3.04669 -1.164167,0.44918 -3.482383,1.41759 -5.151592,2.15202 -9.317198,4.09949 -19.135374,4.05895 -28.826236,-0.11901 -4.605864,-1.98569 -7.648306,-4.06997 -11.548098,-7.91121 -5.747582,-5.6613 -8.968909,-11.32393 -10.579024,-18.59643 -0.606138,-2.73777 -0.856996,-8.029 -0.550633,-11.61423 0.342035,-4.00267 0.429227,-3.82461 -2.459893,-5.02348 -9.342856,-3.8769 -17.068817,-13.75944 -19.379127,-24.78848 -0.718815,-3.43151 -0.785267,-9.81177 -0.128456,-12.33344 1.496664,-5.74609 4.115233,-10.27574 8.44401,-14.60662 5.699009,-5.70177 12.916935,-9.60236 20.890954,-11.289539 3.972375,-0.840492 4.558272,-1.100948 5.038413,-2.239797 1.081668,-2.565611 -0.560608,-12.276696 -3.527395,-20.858138 -1.103049,-3.190572 -2.084091,-6.127423 -2.180097,-6.526336 -0.323943,-1.346009 0.494321,-0.366631 1.698789,2.033282 3.982496,7.935154 6.416203,16.001552 6.875538,22.788611 0.104793,1.54842 0.324663,2.985398 0.488596,3.193285 0.399004,0.50598 4.96247,0.495895 5.969251,-0.01318 0.673541,-0.340581 0.761453,-0.585954 0.806414,-2.250749 0.08848,-3.276315 1.689874,-7.639043 2.804002,-7.639043 0.649109,0 1.297762,1.635161 1.85925,4.686904 0.183594,0.997857 0.40112,1.923379 0.483392,2.056714 0.08227,0.133335 0.790427,-0.357003 1.573678,-1.089642 1.567404,-1.466124 3.714772,-2.402135 6.826117,-2.975423 1.394911,-0.257023 2.084884,-0.271293 2.308434,-0.04774 0.428713,0.428712 -1.776781,6.057706 -3.199526,8.166027 -0.623797,0.924384 -1.6244,1.903621 -2.423946,2.372187 -0.748895,0.438887 -1.361625,0.892777 -1.361625,1.008657 0,0.11588 0.625242,0.81733 1.389429,1.55877 0.764186,0.74144 1.940445,2.15196 2.613911,3.13448 1.158076,1.68953 1.19438,1.80842 0.669444,2.19227 -0.760243,0.5559 -4.460089,0.53137 -5.558923,-0.0369 -0.470862,-0.24349 -1.203712,-0.85581 -1.628557,-1.36072 -0.424849,-0.5049 -0.976413,-0.918 -1.225696,-0.918 -0.267365,0 -1.107434,1.25095 -2.048398,3.05028 -1.531801,2.92913 -2.979571,4.6599 -3.698681,4.42165 -0.550699,-0.18246 -0.583598,-5.77272 -0.04949,-8.40924 0.619449,-3.05781 0.633243,-2.99364 -0.643627,-2.99364 -1.61795,0 -4.824213,0.60402 -5.362684,1.01027 -0.278299,0.20996 -0.597269,1.25956 -0.795691,2.6183 -0.978611,6.70116 -3.793511,13.69944 -7.662421,19.05 -1.722295,2.38187 -5.778037,6.49543 -7.916681,8.02954 -2.483612,1.78157 -7.084844,3.95474 -9.659315,4.56212 -3.087132,0.72832 -3.109334,0.7757 -1.68984,3.60645 1.375427,2.74287 3.489175,5.24715 6.170098,7.31008 2.055982,1.58204 7.15824,4.31086 8.060309,4.31086 0.43288,0 1.004546,-0.85134 2.28427,-3.40179 10.105251,-20.13939 30.798897,-32.45279 53.059687,-31.57227 5.35576,0.21185 9.0441,0.86979 13.80406,2.46243 3.39097,1.13459 8.61646,3.56373 9.21338,4.28297 0.5191,0.62548 0.0441,0.51315 -3.53529,-0.83614 -7.48829,-2.82274 -13.12854,-3.73151 -21.750007,-3.5044 -4.917727,0.12954 -6.734556,0.30507 -9.724375,0.93952 -14.815965,3.144 -26.270264,10.71496 -34.249435,22.6379 -1.558399,2.32865 -4.852607,8.78927 -4.857938,9.52743 -0.0015,0.21145 0.303385,0.51642 0.677581,0.67772 1.358961,0.58577 8.517782,1.82529 21.71889,3.76054 16.379743,2.40124 26.131898,4.299 31.084605,6.04903 2.533489,0.89521 2.482949,0.5245 -0.3404,-2.4967 -2.389508,-2.55695 -3.745435,-4.83436 -4.765012,-8.00326 -0.577324,-1.79437 -0.645868,-2.57878 -0.554875,-6.35 l 0.103816,-4.30275 1.282549,-2.66951 c 1.552886,-3.23221 3.59286,-5.36076 6.485941,-6.76757 2.81839,-1.3705 4.18763,-1.64039 7.80413,-1.53828 3.65324,0.10315 4.23935,0.59605 1.05833,0.89002 -5.50382,0.50861 -10.495888,4.29862 -12.597143,9.56381 -1.005852,2.5204 -0.968961,6.98288 0.08056,9.74415 0.99196,2.60984 2.873124,5.32017 5.843573,8.41927 3.47044,3.62074 6.70477,6.03656 11.85768,8.85688 7.55108,4.1329 12.49144,7.79973 18.26815,13.55898 16.63477,16.5845 26.0796,40.16641 25.27722,63.11231 -0.22078,6.3135 -0.70366,9.72436 -2.60618,18.40879 -1.98815,9.07532 -4.26112,16.67633 -4.23885,14.17508 z M 81.027564,202.04758 c 3.533425,-0.8533 13.048854,-4.28513 19.536916,-7.04616 6.69542,-2.84929 11.37828,-4.4812 15.37801,-5.35902 2.94908,-0.64723 7.36524,-0.45566 11.41534,0.49519 1.48874,0.34951 2.78975,0.55253 2.89113,0.45115 0.49424,-0.49424 -4.40293,-4.52723 -9.75015,-8.02956 -4.16004,-2.72475 -11.20315,-6.19204 -16.27552,-8.01237 -6.236959,-2.23826 -15.950079,-4.56967 -21.544895,-5.17136 -2.01617,-0.21683 -2.979,0.12507 -5.473933,1.94377 -2.636269,1.92173 -4.935416,7.26422 -4.935416,11.46836 0,3.3578 0.685679,4.60137 3.519587,6.38328 2.824658,1.77609 2.892903,2.25994 0.295423,2.09455 -4.584467,-0.29192 -7.144902,-3.98554 -7.137611,-10.29654 0.0053,-4.54672 1.023798,-7.71612 3.492545,-10.86774 0.738079,-0.94223 1.341961,-1.84506 1.341961,-2.00628 0,-0.3454 -2.282859,-0.68934 -11.490477,-1.73117 -7.146453,-0.80862 -16.046607,-2.09409 -17.840476,-2.57674 -1.929677,-0.5192 -2.68426,-0.37984 -2.942454,0.54342 -0.127901,0.45735 -0.212592,2.94065 -0.188202,5.51845 0.03767,3.98117 0.162875,5.14115 0.831506,7.70362 3.350744,12.84137 14.547559,22.86893 27.850341,24.94201 2.456168,0.38276 8.626484,0.1327 11.026375,-0.44686 z m -9.347363,-2.8519 c -0.341373,-0.34137 -0.620679,-0.88642 -0.620679,-1.21121 0,-0.3248 -0.148657,-0.9168 -0.330351,-1.31557 -0.272467,-0.59801 -0.192106,-0.99785 0.458666,-2.28209 l 0.789015,-1.55705 h 1.664483 c 1.536295,0 1.689239,0.0641 1.985905,0.83155 0.176778,0.45735 0.514039,1.21677 0.74947,1.6876 0.558301,1.11654 0.540233,1.6938 -0.07427,2.37282 -0.276277,0.30528 -0.653718,0.86028 -0.838757,1.23333 -0.483579,0.97493 -2.895766,1.12834 -3.783481,0.24062 z m 2.25194,-2.73734 c 0.325622,-0.52687 -0.157023,-0.97636 -0.628354,-0.58519 -0.232827,0.19323 -0.348754,0.47198 -0.257613,0.61945 0.220581,0.3569 0.654585,0.34012 0.885967,-0.0343 z m -11.48311,0.98273 c -0.245413,-0.29104 -0.936525,-1.07138 -1.535805,-1.73409 -1.157895,-1.28044 -1.159915,-1.29993 -0.423515,-4.08674 0.542215,-2.05194 0.664322,-2.20183 2.527225,-3.10228 l 1.726301,-0.83442 1.669648,1.43919 c 1.617227,1.39399 1.663858,1.47715 1.485253,2.6487 -0.101415,0.66524 -0.239313,1.7805 -0.306442,2.47837 -0.172792,1.79641 -0.629675,2.51054 -1.607693,2.51291 -0.4515,0.001 -1.229124,0.27234 -1.728052,0.60277 -1.111012,0.73579 -1.245483,0.74142 -1.80692,0.0756 z m 2.109301,-4.61131 c 0,-0.86197 -0.954399,-1.22745 -1.242789,-0.47592 -0.275106,0.71692 0.114149,1.44095 0.712709,1.32568 0.334741,-0.0645 0.53008,-0.37761 0.53008,-0.84976 z M 53.596293,189.4558 c -0.378868,-0.64138 -0.740386,-0.86054 -1.425182,-0.864 -1.084522,-0.005 -1.363753,-0.17773 -2.058455,-1.26985 -0.617955,-0.97147 -0.654776,-1.54522 -0.150939,-2.35199 0.30405,-0.48686 0.276687,-0.75452 -0.151191,-1.47886 -0.605917,-1.02573 -0.669441,-2.17785 -0.173052,-3.13865 0.192157,-0.37194 0.439386,-0.87129 0.549402,-1.10966 0.110012,-0.23838 0.63923,-0.58129 1.176041,-0.76203 0.536811,-0.18074 1.319977,-0.76812 1.740371,-1.30528 0.628566,-0.80316 0.973948,-0.97667 1.944195,-0.97667 1.005102,0 1.249317,0.13435 1.648944,0.90715 0.409817,0.79249 0.631849,0.90714 1.756854,0.90714 1.100425,0 1.36314,0.12761 1.805971,0.87727 0.327989,0.55524 0.498103,1.41546 0.463429,2.34345 -0.03012,0.8064 0.126785,1.88395 0.348705,2.39455 0.633909,1.45853 -0.225827,3.38864 -1.981877,4.44934 -0.744014,0.4494 -1.465571,1.12206 -1.60346,1.49482 -0.213012,0.57582 -0.486138,0.68261 -1.816411,0.71018 -1.4155,0.0293 -1.614403,-0.05 -2.073345,-0.82691 z m 2.0418,-4.03437 c 0,-0.24946 -0.204107,-0.45357 -0.453571,-0.45357 -0.249464,0 -0.453571,0.20411 -0.453571,0.45357 0,0.24947 0.204107,0.45357 0.453571,0.45357 0.249464,0 0.453571,-0.2041 0.453571,-0.45357 z m -1.146888,-3.23332 c -0.495857,-0.49585 -1.12265,0.13094 -0.847628,0.84763 0.189136,0.49288 0.235675,0.49436 0.70755,0.0225 0.394513,-0.39451 0.425181,-0.58501 0.140078,-0.87011 z M 57.149998,182.7 c 0,-0.24946 -0.204107,-0.45357 -0.453571,-0.45357 -0.249464,0 -0.453572,0.20411 -0.453572,0.45357 0,0.24947 0.204108,0.45357 0.453572,0.45357 0.249464,0 0.453571,-0.2041 0.453571,-0.45357 z m 55.486902,2.87403 c -0.49893,-0.13554 -1.56162,-0.33693 -2.36153,-0.44754 -1.76348,-0.24385 -1.79336,-0.72593 -0.12847,-2.07247 0.90175,-0.72932 1.50179,-0.94713 2.88483,-1.04717 1.84945,-0.13378 2.35916,0.13264 2.48311,1.29791 0.11725,1.10243 -2.6e-4,1.61485 -0.48049,2.09507 -0.51684,0.51684 -1.00545,0.55234 -2.39745,0.1742 z m -18.463191,-1.84475 c -0.114783,-0.18572 0.70915,-1.22571 1.874148,-2.36558 2.245433,-2.19701 4.007273,-3.04822 6.309253,-3.04822 2.29982,0 3.3572,2.2427 1.91925,4.07075 l -0.64983,0.82613 -2.90378,-0.20784 c -2.531919,-0.18122 -3.116666,-0.12692 -4.566238,0.42403 -1.957521,0.74401 -1.730157,0.70952 -1.982803,0.30073 z m -13.016644,-2.91916 c 0.241149,-2.07322 1.525603,-4.95973 2.907245,-6.53333 1.474352,-1.67919 2.925883,-2.31131 5.307451,-2.31131 1.880162,0 2.073099,0.0653 3.035856,1.02809 1.013744,1.01375 1.330742,2.26114 0.790527,3.11073 -0.391172,0.61519 -1.842305,1.00139 -3.788664,1.0083 -2.952959,0.0105 -5.214768,1.38938 -7.057052,4.30228 -1.055149,1.66834 -1.437271,1.47501 -1.195363,-0.60476 z M 62.24998,179.48451 c -0.310349,-0.31035 -0.564268,-0.75002 -0.564268,-0.97706 0,-0.22704 -0.272142,-0.75877 -0.604761,-1.18162 -0.79287,-1.00798 -0.763691,-1.79642 0.105201,-2.84251 0.390477,-0.47011 0.797518,-1.21393 0.90453,-1.65294 0.245612,-1.00758 0.580118,-1.12913 2.578932,-0.93707 1.524973,0.14653 1.641949,0.21788 2.045834,1.24772 0.235606,0.60077 0.561016,1.32858 0.723132,1.61737 0.418495,0.7455 0.365376,1.53383 -0.149204,2.21417 -0.244173,0.32282 -0.44828,0.86711 -0.453572,1.20952 -0.0169,1.09374 -0.682761,1.57323 -2.393563,1.72359 -1.312427,0.11536 -1.737375,0.0337 -2.192261,-0.42117 z m 2.579363,-3.16179 c 0.229505,-0.59809 -0.01877,-1.03105 -0.591239,-1.03105 -0.239649,0 -0.435725,0.24946 -0.435725,0.55436 0,0.97937 0.707965,1.30798 1.026964,0.47669 z m -20.281782,-0.55887 c -1.756195,-1.86571 -2.051775,-2.65067 -1.442085,-3.82969 0.24056,-0.46518 0.437379,-1.24867 0.437379,-1.74107 0,-1.24569 1.500421,-2.5086 2.696244,-2.26943 0.484607,0.0969 0.948638,0.0267 1.064692,-0.16105 0.113139,-0.18307 0.446103,-0.33285 0.739914,-0.33285 0.580729,0 1.84915,1.1919 1.84915,1.73759 0,0.18585 0.42096,0.63765 0.935467,1.00401 0.793593,0.56509 0.910787,0.80897 0.772735,1.60809 -0.4642,2.68707 -0.730032,3.73253 -1.123711,4.41936 -0.238316,0.41578 -0.448495,0.79383 -0.467067,0.84012 -0.01857,0.0463 -0.912834,0.14213 -1.987251,0.21298 l -1.953483,0.12883 z m 3.379818,-2.89123 c 0,-0.86197 -0.954399,-1.22746 -1.242789,-0.47592 -0.275106,0.71691 0.114149,1.44095 0.712709,1.32568 0.334742,-0.0645 0.53008,-0.37761 0.53008,-0.84976 z m 6.879167,1.33545 c -0.884053,-0.69674 -0.982273,-0.93173 -0.978109,-2.3401 0.0054,-1.84352 0.121194,-2.05675 1.478138,-2.7232 1.492936,-0.73324 2.017513,-0.63333 2.925596,0.55723 1.11949,1.46772 0.910397,3.25544 -0.521147,4.45574 -1.223736,1.02606 -1.656906,1.03356 -2.904478,0.0503 z M 28.444521,131.866 c 6.914442,-2.05267 13.473886,-8.29521 17.801445,-16.9414 1.107908,-2.21353 3.344508,-9.39845 3.344508,-10.744 0,-0.8196 -1.396105,-0.71409 -4.555063,0.34426 -8.70286,2.91573 -15.671276,8.68733 -19.207995,15.90905 -0.739594,1.5102 -1.544176,3.68734 -1.78796,4.8381 -0.4537,2.14164 -0.614098,6.51804 -0.252156,6.87998 0.369114,0.36911 2.993337,0.20797 4.657221,-0.28599 z m -0.185648,-4.79035 c -0.846194,-0.84619 -0.94471,-1.92004 -0.291953,-3.18233 1.197037,-2.31481 3.849632,-0.7071 3.337496,2.02282 -0.180555,0.96244 -1.120612,1.90172 -1.903301,1.90172 -0.220019,0 -0.734028,-0.33399 -1.142242,-0.74221 z m 7.482554,-3.5516 c -0.468718,-0.46872 -0.468718,-2.13176 0,-2.60048 0.199571,-0.19957 0.648607,-0.36285 0.997857,-0.36285 1.382985,0 1.838289,1.63909 0.755952,2.72143 -0.690275,0.69027 -1.230875,0.76484 -1.753809,0.2419 z m 0.604762,-9.07143 c -0.911449,-0.91145 -0.0054,-3.26571 1.256907,-3.26571 0.938566,0 1.404045,0.55587 1.404045,1.6767 0,1.54285 -1.694957,2.55501 -2.660952,1.58901 z M 64.706202,100.3074 c 0.176185,-0.329206 0.232428,-0.948821 0.124983,-1.376917 -0.254895,-1.015579 -1.289733,-0.902994 -1.91122,0.207929 -0.374317,0.669109 -0.382418,0.882988 -0.04867,1.285118 0.549659,0.6623 1.448761,0.6054 1.834911,-0.11613 z M 182.71597,256.63459 c -3.3077,-1.67262 -8.71647,-7.5148 -12.18003,-13.15602 -3.1257,-5.09094 -5.40019,-10.24024 -10.41799,-23.58571 -6.86657,-18.26251 -9.74005,-24.06618 -15.26042,-30.82199 -0.97049,-1.18768 -2.87443,-3.7615 -4.23097,-5.7196 -1.35654,-1.95809 -3.07683,-4.38935 -3.82288,-5.40278 -2.09374,-2.84415 -1.40938,-3.23387 1.91052,-1.08795 2.43396,1.57327 2.94799,1.43226 2.71162,-0.74381 -0.0944,-0.86956 -0.60378,-2.94173 -1.13184,-4.60482 -0.52806,-1.6631 -1.02822,-3.97631 -1.11146,-5.14048 -0.13199,-1.8459 -0.068,-2.22181 0.49984,-2.93861 0.35816,-0.45207 1.00968,-0.99636 1.44784,-1.20953 0.61853,-0.30092 0.87698,-0.74657 1.15591,-1.99319 0.76274,-3.40888 3.04562,-4.35757 5.33872,-2.21859 l 1.24902,1.16508 1.13677,-0.44653 c 1.06362,-0.4178 1.22883,-0.40196 2.56767,0.24616 l 1.43092,0.69269 0.66361,-0.83225 c 1.15524,-1.44881 2.26338,-1.98606 4.10093,-1.98824 1.39224,-0.002 1.94092,0.1663 3.14157,0.96158 1.77727,1.17721 3.86418,3.94025 4.5613,6.03909 0.91266,2.74775 0.1616,6.8119 -2.44011,13.2041 -0.46081,1.13218 -0.47443,1.36587 -0.10135,1.73895 0.37309,0.37309 0.67333,0.36823 2.23423,-0.0361 3.73522,-0.9676 4.73512,-2.18826 6.90993,-8.43545 2.12107,-6.09283 3.03301,-6.84414 4.85337,-3.99846 1.372,2.14479 2.46903,3.01633 3.48279,2.76692 1.77259,-0.43609 3.93862,-3.32859 7.29787,-9.7455 1.06581,-2.03594 2.1113,-3.70282 2.3233,-3.70417 0.75682,-0.005 1.09275,1.64871 1.07454,5.28921 -0.0203,4.05562 -0.0378,4.13811 -2.53839,11.96818 -2.49861,7.82376 -2.41422,9.68838 0.45794,10.11909 0.74522,0.11175 1.41105,0.39664 1.50614,0.64443 0.37041,0.9653 -1.10658,11.29677 -2.28353,15.97307 -1.6638,6.61066 -5.31251,13.3496 -8.06583,14.89705 -2.87875,1.61795 -7.35453,2.01276 -11.32005,0.99855 -2.65294,-0.67851 -5.22534,-1.91301 -8.35294,-4.00861 -1.22361,-0.81987 -2.29173,-1.42369 -2.37359,-1.34183 -0.53134,0.53134 2.85532,6.61151 5.51876,9.90801 5.89445,7.29544 11.66457,11.73946 17.01435,13.10409 3.07756,0.78502 5.38865,0.88279 8.22119,0.34779 3.47719,-0.65677 6.07905,-1.98558 8.31971,-4.24901 4.68674,-4.73434 5.44771,-12.06233 1.64728,-15.86277 -0.77369,-0.77369 -1.18384,-0.94208 -2.29456,-0.94208 -0.74386,0 -1.76657,0.21414 -2.27269,0.47586 -1.11184,0.57496 -1.46172,0.35163 -0.72482,-0.46263 0.74613,-0.82446 2.41999,-1.3205 3.66673,-1.08661 1.8315,0.34359 3.04329,1.72975 3.90963,4.47219 1.40985,4.46296 1.31198,7.12021 -0.39825,10.81309 -0.93099,2.01028 -4.10731,5.26139 -6.26109,6.40851 -4.09643,2.1818 -10.36477,2.82271 -14.66337,1.49926 -4.67362,-1.43892 -8.07889,-3.70897 -13.76802,-9.17817 -1.91633,-1.84226 -3.57018,-3.26362 -3.67522,-3.15859 -0.2739,0.2739 5.71288,14.5711 7.66827,18.3128 3.31197,6.33759 7.0686,11.00397 10.98156,13.641 2.44441,1.64734 3.63027,2.07839 5.76439,2.09525 1.23324,0.01 2.11679,-0.20298 3.3262,-0.80082 2.20696,-1.09096 5.09991,-4.02675 6.20004,-6.29186 0.78609,-1.61851 0.88163,-2.12992 0.88543,-4.73935 0.004,-2.52674 -0.084,-3.04146 -0.64382,-3.77976 -0.8118,-1.07064 -1.81364,-1.0477 -3.28587,0.0752 -1.47802,1.12734 -1.77614,0.60239 -0.35743,-0.62938 2.15505,-1.87108 3.77767,-1.65052 4.79616,0.65196 0.51794,1.17088 0.60171,1.85528 0.49647,4.05631 -0.17165,3.59033 -1.4979,6.35997 -4.30119,8.98231 -2.65346,2.48219 -4.79331,3.46527 -7.88816,3.62395 -2.24035,0.11486 -2.55849,0.0535 -4.30665,-0.83049 z m -4.43796,-46.23568 c 1.85636,-0.84311 4.55031,-3.87257 3.96457,-4.45831 -0.10716,-0.10716 -0.98049,-0.0356 -1.94073,0.15902 -5.24686,1.06344 -12.22269,0.66323 -16.02413,-0.91931 -1.22807,-0.51125 -2.30275,-0.85964 -2.38818,-0.77421 -0.38145,0.38145 3.54912,3.38283 6.23427,4.76048 3.54431,1.81846 7.74198,2.32789 10.1542,1.23233 z m 0.0642,-10.9427 c 2.32691,-1.13957 4.06001,-3.17304 4.59107,-5.38677 0.38835,-1.61883 0.26156,-2.14682 -0.51555,-2.14682 -0.50853,0 -8.85103,8.07707 -8.85103,8.56942 0,0.52475 2.85218,-0.0939 4.77551,-1.03583 z m -7.88258,-4.94056 c 1.36783,-0.56347 3.42997,-1.65138 4.58251,-2.4176 5.92364,-3.93802 10.27845,-11.55587 8.31717,-14.54916 -1.11361,-1.69958 -3.04594,-0.26129 -4.68614,3.48802 -2.45836,5.61955 -5.84283,9.91881 -10.47373,13.30472 -1.0207,0.74629 -1.2554,1.21355 -0.60476,1.20403 0.20789,-0.003 1.49712,-0.46655 2.86495,-1.03001 z m -15.3149,-19.5031 c 0.74704,-0.74704 0.88388,-1.12388 0.88388,-2.43407 0,-1.84851 -0.57158,-3.08446 -1.65465,-3.57794 -1.23496,-0.56269 -1.94716,-0.43453 -2.90432,0.52263 -0.71572,0.71572 -0.88389,1.14345 -0.88389,2.24817 0,3.55311 2.48229,5.3179 4.55898,3.24121 z m -62.61131,46.04748 c -0.883687,-0.74357 -1.030895,-0.77369 -2.14711,-0.43926 -1.157121,0.34668 -1.244461,0.32128 -2.536952,-0.73782 -1.136075,-0.93093 -1.367548,-1.31049 -1.530081,-2.50895 -0.28852,-2.12746 -0.407395,-2.40645 -1.434247,-3.36613 -0.901162,-0.84221 -0.92209,-0.91276 -0.431516,-1.45483 0.283564,-0.31334 0.515572,-0.98456 0.515572,-1.49161 0,-1.02847 0.462271,-1.53404 1.70704,-1.86694 0.700759,-0.18741 0.890279,-0.46255 1.153263,-1.67424 0.293391,-1.3518 0.404062,-1.48007 1.634698,-1.89457 1.299498,-0.43769 1.333603,-0.43157 2.195425,0.3941 0.808137,0.77425 0.952358,0.81089 1.876464,0.47673 1.414696,-0.51156 1.733009,-0.45538 2.89919,0.5117 0.907605,0.75264 1.027702,1.01663 0.98288,2.16047 -0.0332,0.84715 0.123985,1.49648 0.449235,1.85588 1.09064,1.20514 3.049139,0.18798 2.655779,-1.3793 -0.12854,-0.51211 -0.0265,-1.05736 0.28769,-1.53682 0.2678,-0.40871 0.48691,-1.2711 0.48691,-1.91641 0,-1.48673 0.71843,-2.17417 2.27218,-2.17417 0.75814,0 1.39626,-0.21611 1.82364,-0.61761 0.54729,-0.51415 0.78057,-0.5615 1.39259,-0.28264 0.40435,0.18423 0.86568,0.63224 1.02517,0.99558 0.37514,0.85461 1.53449,1.01071 2.30794,0.31075 0.52387,-0.4741 0.58351,-0.79957 0.43387,-2.36775 -0.16342,-1.71251 0.27824,-4.34656 0.81956,-4.88789 0.12457,-0.12456 0.99271,-0.46355 1.92922,-0.75331 l 1.70274,-0.52684 1.49423,1.50211 c 1.32714,1.33414 1.4747,1.61115 1.31965,2.47735 -0.096,0.53639 -0.26091,1.48075 -0.36643,2.09858 -0.10552,0.61784 -0.34762,1.24074 -0.538,1.38424 -0.89709,0.67622 -3.14071,1.2386 -4.29673,1.07701 -1.09763,-0.15343 -1.28728,-0.0831 -1.77226,0.65704 -0.4256,0.64955 -0.49998,1.15383 -0.34381,2.33109 0.15013,1.1317 0.0789,1.68587 -0.28855,2.24675 -0.32101,0.48992 -0.4218,1.0452 -0.29472,1.62375 0.27161,1.23665 -1.00096,2.53558 -2.22149,2.26751 -0.62243,-0.13671 -0.98665,-0.0244 -1.39915,0.4314 -0.31219,0.34496 -0.93636,0.61621 -1.41795,0.61621 -0.84147,0 -1.23865,-0.30386 -2.34417,-1.79343 -0.50125,-0.67539 -0.62038,-0.70412 -1.46644,-0.35367 -1.490358,0.61733 -2.300903,1.66889 -2.091894,2.71393 0.215646,1.07822 -0.611057,2.29245 -1.756558,2.57995 -0.572368,0.14366 -0.765998,0.39541 -0.781991,1.01672 -0.03434,1.33453 -0.365224,1.83803 -1.632461,2.4841 -0.657572,0.33525 -1.22441,0.60955 -1.25964,0.60955 -0.03523,0 -0.490982,-0.35924 -1.012786,-0.79831 z m -1.214334,-5.55169 c 0,-0.33598 -0.201589,-0.60477 -0.453572,-0.60477 -0.251983,0 -0.453571,0.26879 -0.453571,0.60477 0,0.33597 0.201588,0.60476 0.453571,0.60476 0.251983,0 0.453572,-0.26879 0.453572,-0.60476 z m 2.718232,-1.35687 c 0.458697,-0.55269 0.190736,-1.36456 -0.450375,-1.36456 -0.554839,0 -0.894485,0.71475 -0.646603,1.36071 0.221129,0.57626 0.620758,0.57766 1.096978,0.004 z m -2.772797,-2.52218 c 0.0628,-0.4268 -0.06326,-0.65667 -0.36013,-0.65667 -0.58801,0 -0.89723,0.50653 -0.670275,1.09796 0.246237,0.64168 0.913075,0.3561 1.030405,-0.44129 z m 15.778379,-3.22691 c 0,-0.24946 -0.20411,-0.45357 -0.45358,-0.45357 -0.47219,0 -0.59991,0.35763 -0.25198,0.70556 0.34793,0.34793 0.70556,0.2202 0.70556,-0.25199 z M 104.62381,208.1 c 0,-0.24946 -0.13607,-0.45357 -0.30238,-0.45357 -0.16631,0 -0.30238,0.20411 -0.30238,0.45357 0,0.24947 0.13607,0.45357 0.30238,0.45357 0.16631,0 0.30238,-0.2041 0.30238,-0.45357 z m 21.52952,3.11453 c -0.61019,-0.6102 -0.42007,-2.02647 0.37935,-2.82589 0.40822,-0.40821 0.87475,-0.74221 1.03674,-0.74221 0.5697,0 1.24486,0.95921 1.24486,1.7686 0,1.67798 -1.65992,2.80052 -2.66095,1.7995 z m 2.19193,-5.70184 c -1.37174,-1.51575 -0.33369,-4.86953 1.56677,-5.06204 2.02413,-0.20503 3.13938,2.80337 1.73796,4.68817 -0.83429,1.12206 -2.46107,1.3061 -3.30473,0.37387 z m 6.64026,-1.34584 c -0.26158,-1.04223 0.60547,-2.3335 1.48299,-2.20859 1.38256,0.19679 0.86609,2.96674 -0.55315,2.96674 -0.53725,0 -0.79161,-0.20739 -0.92984,-0.75815 z M 22.93474,183.75056 c -0.27488,-0.16047 -0.99009,-0.97424 -1.589356,-1.80837 l -1.089573,-1.51661 -1.093406,0.45685 c -2.0523,0.85751 -3.740978,0.30051 -3.740978,-1.23394 0,-0.32166 -0.306161,-0.71916 -0.680357,-0.88333 -0.960188,-0.42126 -1.005165,-1.64313 -0.124206,-3.37426 l 0.742951,-1.45994 -1.329908,-1.42336 c -1.120004,-1.1987 -1.329909,-1.61733 -1.329909,-2.65232 0,-1.01745 0.130101,-1.28823 0.755953,-1.57339 0.415774,-0.18944 0.758731,-0.42465 0.762128,-0.52269 0.0034,-0.098 0.06051,-1.1575 0.126921,-2.35437 l 0.120745,-2.17612 -1.329688,-1.22566 c -0.731329,-0.67412 -1.568225,-1.22567 -1.859768,-1.22567 -0.291544,0 -1.246109,0.29678 -2.1212567,0.65951 l -1.5911775,0.65951 -0.7020122,-0.65951 c -0.3861069,-0.36273 -0.9236516,-0.65951 -1.1945438,-0.65951 -0.7983801,0 -1.433967,-1.22978 -1.433967,-2.77456 0,-1.40461 -0.024596,-1.44135 -1.3607143,-2.03238 -0.7483928,-0.33105 -1.3705606,-0.71161 -1.382595,-0.8457 -0.310534,-3.45988 -0.2599726,-3.72993 0.8272089,-4.41817 0.9864289,-0.62446 1.038691,-0.73951 0.8837386,-1.94554 -0.2199038,-1.71156 0.2298545,-2.77821 1.3496801,-3.20089 0.5086334,-0.19199 0.9704012,-0.617 1.0379903,-0.95537 0.6605712,-3.307 0.4160033,-4.21659 -1.2160664,-4.52277 -1.7913519,-0.33606 -2.5582898,-1.33758 -2.5582898,-3.3408 0,-1.0629 -0.1857522,-1.97097 -0.5018624,-2.45341 -0.71513212,-1.09143 -0.2559144,-2.84117 0.8893341,-3.38859 0.4625738,-0.22111 1.1666137,-0.91775 1.5645331,-1.5481 0.4970704,-0.7874 1.0145171,-1.20428 1.6534257,-1.33206 0.9862702,-0.19726 2.136583,-1.67361 2.1386773,-2.74485 6.35e-4,-0.31801 -0.3502464,-1.17777 -0.7797066,-1.91059 -0.5717128,-0.97556 -0.8223963,-1.91399 -0.9360132,-3.50395 l -0.1551765,-2.17155 1.6692287,-1.28512 c 0.9180755,-0.70682 1.854796,-1.28512 2.0816011,-1.28512 0.2268047,0 0.9461645,0.27214 1.5985775,0.60476 0.652413,0.33262 1.353511,0.60476 1.557995,0.60476 0.530885,0 0.807296,0.55834 1.047226,2.11533 0.11544,0.74913 0.298483,1.83831 0.406762,2.42039 0.181608,0.97629 0.07546,1.1814 -1.369258,2.64583 -1.349371,1.36779 -1.726896,1.5875 -2.7277163,1.5875 -1.3594226,0 -1.8503017,0.64331 -1.8986785,2.48827 -0.033922,1.2937 0.38934,1.73307 1.6766041,1.74044 1.2777287,0.007 2.1646727,1.3534 1.9468107,2.95464 -0.132577,0.9744 -0.02985,1.52513 0.422996,2.26786 0.328952,0.53951 0.598602,1.16863 0.599224,1.39804 0.002,0.75285 -3.1262848,4.54914 -3.999561,4.85356 -1.6592187,0.57841 -1.6645917,2.73564 -0.00952,3.82009 0.6947462,0.45522 0.7996437,0.43636 1.929862,-0.34688 l 1.195181,-0.82826 0.883909,0.6535 c 0.48615,0.35943 1.096893,0.6535 1.357208,0.6535 0.615481,0 1.063206,1.2088 0.978821,2.6427 -0.06235,1.0595 0.01912,1.17841 1.194383,1.74321 1.626381,0.78158 1.729598,0.89913 1.803985,2.05446 0.03428,0.53238 0.155288,1.268 0.268912,1.6347 0.16247,0.52434 -0.03537,0.88839 -0.926356,1.70464 l -1.132946,1.03791 0.209308,1.85004 c 0.206216,1.82271 0.196894,1.85475 -0.631294,2.16963 -0.462331,0.17578 -0.942318,0.48117 -1.066639,0.67865 -0.530348,0.84246 0.67144,2.60714 2.209347,3.24417 1.134166,0.46979 1.645471,0.069 1.893901,-1.48462 0.101874,-0.63708 0.479957,-1.53302 0.840184,-1.99098 0.571917,-0.72707 0.800106,-0.80943 1.799735,-0.64959 0.647308,0.10351 1.226162,0.0514 1.332062,-0.11997 0.329655,-0.5334 1.537889,-0.3249 2.186569,0.37732 0.345669,0.37419 0.838695,1.19062 1.095613,1.81428 0.522124,1.26743 0.738677,1.33773 2.043091,0.66319 0.500672,-0.25891 1.40808,-0.429 2.016462,-0.37798 0.957523,0.0803 1.143789,0.22481 1.386275,1.07551 0.184189,0.64618 0.468605,0.98273 0.830501,0.98273 1.2504,0 1.397971,1.9046 0.322338,4.16022 -0.466779,0.97885 -0.461201,0.99769 0.62732,2.11788 1.309448,1.34754 2.056919,2.70251 1.82469,3.30769 -0.09268,0.24151 -0.502699,0.56617 -0.911158,0.72147 -0.691143,0.26277 -0.72866,0.38412 -0.540875,1.74948 l 0.201779,1.46712 -1.677483,0.94671 c -1.308103,0.73825 -2.051056,1.47984 -3.37401,3.36783 -0.933088,1.33162 -1.743514,2.42113 -1.800945,2.42113 -0.05743,0 -0.335265,-0.23085 -0.617408,-0.51299 -0.482397,-0.4824 -0.566291,-0.4824 -1.406818,0 -1.013565,0.58171 -1.389397,0.61799 -2.100555,0.20283 z m 1.80002,-7.61222 c 0.751594,-0.7516 0.23212,-2.35858 -0.762435,-2.35858 -0.656677,0 -1.110411,1.32924 -0.709464,2.07842 0.385258,0.71986 0.928748,0.82331 1.471899,0.28016 z m -1.922177,-5.17156 c 0.595801,-1.70396 -1.153837,-2.75484 -2.123272,-1.2753 -0.419843,0.64076 -0.45099,0.92862 -0.167745,1.55027 0.491454,1.07862 1.875822,0.91248 2.291017,-0.27497 z m 4.769801,-0.0831 c 0.450154,-0.98798 0.02156,-1.7548 -1.052999,-1.88398 -0.887602,-0.1067 -1.307407,0.70344 -0.999738,1.92929 0.261646,1.04248 1.570267,1.0136 2.052737,-0.0453 z M 9.2013767,155.43203 c 0.228288,-0.59491 -0.525177,-1.47222 -1.0080758,-1.17377 -0.3651489,0.22568 -0.4473003,1.16195 -0.1298103,1.47944 0.3649457,0.36495 0.9398051,0.21052 1.1378861,-0.30567 z m 3.1841853,-1.44369 c 0.521957,-0.62892 0.262354,-1.52643 -0.441516,-1.52643 -0.617456,0 -0.935247,0.75971 -0.639825,1.52956 0.213496,0.55637 0.617971,0.55519 1.081341,-0.003 z M 9.6206784,151.0256 c 0.075342,-0.65479 -0.029273,-0.83155 -0.4921416,-0.83155 -0.7533855,0 -1.3878472,0.75988 -1.1506239,1.37807 0.3147196,0.82015 1.5321144,0.41514 1.6427655,-0.54652 z M 5.5940461,135.67977 c 0.102785,-0.16631 0.04278,-0.30239 -0.1333449,-0.30239 -0.1761245,0 -0.3202266,0.13608 -0.3202266,0.30239 0,0.1663 0.060005,0.30238 0.1333449,0.30238 0.07334,0 0.2174415,-0.13608 0.3202266,-0.30238 z m 2.872619,-0.1512 c 0,-0.24946 -0.2041071,-0.45357 -0.4535714,-0.45357 -0.2494643,0 -0.4535714,0.20411 -0.4535714,0.45357 0,0.24947 0.2041071,0.45358 0.4535714,0.45358 0.2494643,0 0.4535714,-0.20411 0.4535714,-0.45358 z m -1.2670884,-2.49464 c -0.056049,-0.29104 -0.3022884,-0.52916 -0.5471973,-0.52916 -0.2449089,0 -0.491148,0.23812 -0.5471973,0.52916 -0.071502,0.37128 0.091766,0.52917 0.5471973,0.52917 0.4554308,0 0.6186989,-0.15789 0.5471973,-0.52917 z M 125.93794,172.67451 c -0.71869,-0.71869 -1.05461,-1.76495 -1.05461,-3.28473 0,-1.45666 0.51114,-2.86716 1.039,-2.86716 0.34958,0 2.90559,4.71665 2.89689,5.34566 -0.016,1.15799 -1.97998,1.70753 -2.88128,0.80623 z m -8.59818,-7.34546 c -0.95559,-0.95559 -1.34717,-2.926 -0.94163,-4.73817 0.39185,-1.75095 1.90823,-4.34921 2.53826,-4.34921 0.41085,0 0.47095,0.37209 1.00123,6.19881 0.21019,2.30961 -0.20812,3.47738 -1.24561,3.47738 -0.41989,0 -1.0284,-0.26496 -1.35225,-0.58881 z m -11.37274,-5.73697 c -2.5917,-1.48655 -4.04254,-4.4119 -4.28608,-8.64208 -0.25212,-4.37914 1.13067,-8.34636 3.86073,-11.07642 1.34259,-1.34259 2.40833,-1.87735 2.40833,-1.20844 0,0.14517 -0.28974,0.91894 -0.64387,1.7195 -0.54131,1.22372 -0.61935,1.84393 -0.48995,3.8938 0.12876,2.03988 0.46297,3.25336 2.04567,7.42752 2.62411,6.92075 2.59932,8.77238 -0.11733,8.76621 -0.82028,-0.002 -1.77233,-0.30354 -2.7775,-0.88009 z m -19.390708,-3.97745 c -1.473045,-0.54854 -1.745473,-2.73391 -0.522054,-4.18785 0.960274,-1.14122 2.156172,-1.23028 3.095413,-0.2305 0.842249,0.89653 0.834611,1.97489 -0.02289,3.23174 -0.785686,1.15159 -1.61206,1.53606 -2.550472,1.18661 z m -6.725578,-0.8627 c -0.822621,-0.82262 -0.791098,-1.39739 0.127003,-2.31549 0.626827,-0.62682 0.859104,-0.69764 1.37779,-0.42005 0.853794,0.45694 0.714695,2.31091 -0.219674,2.92787 -0.591454,0.39053 -0.721759,0.37103 -1.285119,-0.19233 z m -12.220517,-1.85957 c -0.459429,-0.65593 -0.758063,-0.64173 -1.769065,0.0841 -0.671095,0.48179 -1.593161,-0.31324 -2.082325,-1.79542 -0.29657,-0.89862 -0.648629,-1.19226 -2.354837,-1.9641 -2.276596,-1.02987 -2.523306,-1.2842 -2.296523,-2.36742 0.113302,-0.5412 -0.0234,-0.94221 -0.45411,-1.33199 -0.863518,-0.78147 -0.767585,-1.96383 0.285424,-3.51784 1.074885,-1.58629 1.079336,-1.63175 0.307884,-3.1449 -0.810726,-1.5902 -0.768166,-2.44924 0.15119,-3.05162 0.415774,-0.27243 0.755953,-0.73515 0.755953,-1.02828 0,-0.78836 0.791494,-1.31059 1.661356,-1.09617 0.41673,0.10273 1.07765,0.26681 1.468713,0.36463 0.614408,0.15369 0.809577,-0.0209 1.436309,-1.28512 0.909538,-1.83462 2.207914,-2.45614 2.912897,-1.39438 0.378729,0.57039 0.629608,0.64194 1.724635,0.49185 1.141368,-0.15644 1.352892,-0.0848 1.93519,0.65548 0.359567,0.45711 0.653757,1.13628 0.653757,1.50926 0,0.87039 0.474593,1.22978 1.916862,1.45156 1.502108,0.23099 2.01409,0.68025 2.01409,1.76735 0,0.48442 0.219108,1.21516 0.486906,1.62387 0.626207,0.95572 0.378121,1.94195 -0.836476,3.3253 l -0.945594,1.07698 0.798773,1.57874 c 0.990727,1.95814 1.005616,2.7257 0.06483,3.34213 -0.403669,0.26449 -0.777866,0.79041 -0.831548,1.16871 -0.08897,0.62699 -0.257362,0.68837 -1.904628,0.69429 l -1.807022,0.006 -0.924013,1.65431 c -1.029102,1.84248 -1.678967,2.16683 -2.368625,1.18221 z m 2.068591,-8.44355 c 0,-0.85752 -0.12521,-1.07616 -0.659898,-1.15227 -0.791268,-0.11265 -1.431091,0.88522 -1.145184,1.78604 0.142298,0.44834 0.408287,0.58612 0.99949,0.51774 0.70134,-0.0811 0.805592,-0.23013 0.805592,-1.15151 z m -4.433664,-0.56799 c 0.606337,-0.38433 0.318849,-1.69986 -0.371475,-1.69986 -0.829537,0 -1.310722,0.88315 -0.809946,1.48655 0.451779,0.54436 0.613169,0.5735 1.181421,0.21331 z m 3.566344,-3.56517 c 0.157771,-0.6286 0.04727,-0.9327 -0.499929,-1.37579 -0.689317,-0.55817 -0.713825,-0.55746 -1.309485,0.0382 -0.515272,0.51527 -0.554077,0.72322 -0.256746,1.37579 0.497239,1.09132 1.788662,1.06744 2.06616,-0.0382 z m -15.914823,11.75988 c -0.249464,-0.0804 -0.682302,-0.34505 -0.961859,-0.58819 -0.27956,-0.24315 -0.959917,-0.66763 -1.511905,-0.94328 -0.992837,-0.49582 -1.004567,-0.52634 -1.091873,-2.8414 -0.08797,-2.33251 -0.08516,-2.34208 0.854281,-2.91338 0.518396,-0.31526 1.144128,-0.86101 1.39052,-1.21279 0.613779,-0.87628 1.300785,-0.80366 2.862967,0.30264 1.789158,1.26704 2.08644,1.69831 2.08644,3.02684 0,0.62262 0.118703,1.44706 0.263782,1.83209 0.354926,0.94192 -0.06888,1.96005 -0.924557,2.22112 -0.384967,0.11745 -0.904046,0.38088 -1.15351,0.58539 -0.62631,0.51345 -1.277236,0.70395 -1.814286,0.53096 z m 1.15205,-4.24527 c -0.07843,-0.67893 -0.241639,-0.81121 -1.00086,-0.81121 -0.694629,0 -0.928621,0.15056 -0.99883,0.64267 -0.05043,0.35346 0.12911,0.86346 0.398976,1.13333 0.723915,0.72391 1.72603,0.11992 1.600714,-0.96479 z m 26.537406,1.28386 c -1.06608,-1.06608 -0.175378,-3.1534 1.345622,-3.1534 1.518542,0 1.886522,1.7104 0.666814,3.0994 -0.576671,0.65672 -1.387953,0.67848 -2.012436,0.054 z m 5.559077,-2.71594 c -0.562044,-0.67722 -0.479177,-2.14519 0.16103,-2.85261 0.615847,-0.6805 1.660114,-0.7966 2.210913,-0.2458 0.520821,0.52082 0.44776,2.53285 -0.112313,3.09292 -0.60788,0.60788 -1.757372,0.61067 -2.25963,0.006 z m -50.664167,-1.98111 c -0.414555,-0.45808 -0.576033,-1.0876 -0.576033,-2.24569 0,-1.84521 0.74794,-3.13031 2.102543,-3.61253 0.735275,-0.26175 0.932443,-0.18265 1.707802,0.68513 1.819798,2.03671 0.732866,5.80959 -1.673694,5.80959 -0.616935,0 -1.199681,-0.23767 -1.560618,-0.6365 z m 7.281173,-5.12354 c -0.224657,-0.70783 0.612693,-2.20158 1.136296,-2.02704 0.76555,0.25518 0.9512,1.0618 0.428123,1.86012 -0.618544,0.94402 -1.294874,1.01618 -1.564419,0.16692 z m -2.428092,-3.75121 c -0.907052,-0.90705 -0.946857,-1.93988 -0.1155,-2.99678 1.215266,-1.54496 3.001862,-0.75959 3.001862,1.31959 0,0.89947 -0.182108,1.30923 -0.796731,1.79269 -1.012665,0.79656 -1.187217,0.78691 -2.089631,-0.1155 z m 4.330422,-2.15856 c -0.720054,-1.58035 1.126702,-3.25432 2.298011,-2.08301 0.649744,0.64974 0.619599,1.11049 -0.135446,2.07038 -0.802029,1.01961 -1.701358,1.02486 -2.162565,0.0126 z m 40.560265,-21.44571 c -0.39562,-0.3958 -0.618575,-0.41737 -1.265836,-0.12246 -1.112659,0.50696 -1.552448,0.23502 -2.532353,-1.56587 -0.773672,-1.42187 -1.028939,-1.63808 -2.488955,-2.10813 -1.824636,-0.58744 -2.141604,-0.92457 -2.148266,-2.28492 -0.0024,-0.52014 -0.208736,-1.11511 -0.4582,-1.32214 -0.697729,-0.57907 -0.543506,-1.73467 0.467281,-3.50134 L 77.739323,99.423703 77.120851,98.2114 c -0.787173,-1.542986 -0.786184,-2.596539 0.003,-3.149276 0.341787,-0.239398 0.727096,-0.825419 0.85624,-1.302267 0.20261,-0.748121 0.376528,-0.863092 1.268449,-0.83853 0.568503,0.01566 1.367605,0.08369 1.775786,0.151191 0.586211,0.09694 0.832685,-0.06788 1.17306,-0.784419 0.98034,-2.063777 2.502045,-2.867893 3.393806,-1.793388 0.309227,0.372597 0.722947,0.430524 1.926904,0.269793 1.846462,-0.246507 2.383902,-0.673366 2.863581,-2.274391 0.414074,-1.38206 0.264577,-2.05972 -0.813928,-3.68945 -0.647703,-0.978747 -0.707417,-1.256332 -0.410461,-1.908078 0.191132,-0.419487 0.347511,-1.079818 0.347511,-1.467404 0,-0.77899 0.428365,-1.220751 1.89348,-1.952688 0.653327,-0.326387 1.007309,-0.740703 1.063791,-1.245108 0.187603,-1.675275 0.38888,-2.116667 0.965215,-2.116667 0.321625,0 0.945712,-0.164456 1.386858,-0.365454 0.73957,-0.336971 0.866866,-0.286086 1.633172,0.652831 0.806438,0.988087 0.852327,1.003412 1.54728,0.516645 1.091598,-0.764582 2.352965,-0.65401 2.691315,0.235927 0.91064,2.395159 4.24032,1.116415 4.24032,-1.628473 0,-1.250487 0.88329,-2.435285 1.81555,-2.435285 0.32035,0 1.05932,-0.418692 1.64215,-0.930426 1.211,-1.063275 1.99939,-0.999971 2.80201,0.224983 0.2741,0.418326 0.8147,0.880866 1.20133,1.027863 0.38663,0.146996 0.96711,0.712893 1.28994,1.257541 1.34332,2.266303 2.19045,2.342561 4.28268,0.385515 1.61562,-1.511221 2.85672,-1.75921 4.51433,-0.902023 1.36908,0.707976 1.83406,1.890225 1.60507,4.081057 -0.21048,2.01373 -0.66383,2.717395 -1.75073,2.717395 -0.38353,0 -0.86672,0.204107 -1.07376,0.453571 -0.20703,0.249464 -0.75388,0.453571 -1.21522,0.453571 -0.99785,0 -2.4582,-1.512727 -3.05582,-3.16542 -0.42511,-1.175609 -1.23186,-1.572572 -2.53253,-1.246124 -0.67977,0.170615 -0.75595,0.341506 -0.75595,1.695876 0,1.699974 -0.7154,2.715668 -1.91277,2.715668 -0.38678,0 -1.02282,0.340179 -1.41342,0.755953 -0.89881,0.956739 -1.89827,0.96285 -2.78479,0.01702 -0.38092,-0.406412 -1.06923,-0.880222 -1.52956,-1.052912 -0.46034,-0.17269 -0.96724,-0.656599 -1.12645,-1.075357 -0.21558,-0.566862 -0.50889,-0.761374 -1.14816,-0.761374 -0.68605,0 -0.96162,0.215993 -1.3711,1.074695 -0.50471,1.058376 -0.50044,1.090488 0.28096,2.114961 0.69425,0.910203 0.76718,1.215445 0.58335,2.441345 -0.30597,2.040367 -0.40804,2.192571 -1.70445,2.541657 -0.9384,0.252685 -1.17844,0.459734 -1.17844,1.016493 0,1.26108 -0.629753,2.603706 -1.221259,2.603706 -0.306533,0 -0.641432,0.136071 -0.744217,0.302381 -0.315023,0.509717 -1.078671,0.339026 -2.017507,-0.45095 -0.841538,-0.70811 -0.947632,-0.726262 -1.767323,-0.302381 -1.199618,0.620347 -1.539155,0.571539 -2.253128,-0.323868 -0.429695,-0.538891 -0.781836,-0.711881 -1.156471,-0.56812 -1.151104,0.441719 -1.903543,3.31011 -1.045452,3.985381 0.207887,0.163597 0.921814,0.381257 1.586508,0.483695 1.387587,0.213838 1.966468,0.839071 1.966468,2.123918 0,0.495623 0.220233,1.14449 0.48941,1.441924 0.652913,0.721463 0.357632,1.797137 -0.790911,2.881177 -0.499412,0.47136 -0.908023,1.015 -0.908023,1.20808 0,0.19308 0.3532,1.03183 0.784891,1.86389 0.854767,1.64753 0.789928,2.61961 -0.195595,2.93241 -0.428514,0.136 -0.589296,0.4614 -0.589296,1.19264 0,1.22138 -0.415407,1.41929 -2.155029,1.02672 -1.447307,-0.3266 -1.332584,-0.40323 -2.781578,1.85787 -0.761632,1.18849 -1.631693,1.46693 -2.347163,0.75114 z m 2.140035,-7.55079 c 0.452879,-0.54568 0.179626,-1.83702 -0.438952,-2.07439 -0.977782,-0.37521 -1.795187,1.37521 -1.009217,2.16118 0.48761,0.48761 0.996786,0.4571 1.448169,-0.0868 z m -4.29055,-1.42511 c 0.53685,-0.53685 0.440505,-1.3886 -0.19558,-1.72902 -0.996134,-0.53312 -1.731434,0.89057 -0.892992,1.72902 0.199572,0.19957 0.4445,0.36285 0.544286,0.36285 0.09979,0 0.344714,-0.16328 0.544286,-0.36285 z m 3.213877,-3.136126 c 0.638571,-0.638568 0.598221,-1.134026 -0.147293,-1.808704 -0.4757,-0.430506 -0.74305,-0.487744 -1.133928,-0.24277 -0.729673,0.457306 -0.830877,1.655799 -0.180008,2.131726 0.694212,0.507614 0.883769,0.497204 1.461229,-0.08025 z M 96.871253,86.542861 c 0.232437,-0.605723 -0.0799,-1.360714 -0.562922,-1.360714 -0.48302,0 -0.795358,0.754991 -0.562921,1.360714 0.09573,0.249464 0.349044,0.453571 0.562921,0.453571 0.213877,0 0.467191,-0.204107 0.562922,-0.453571 z m -2.025185,-3.044135 c 0.252023,-0.65676 -0.387785,-1.274388 -0.845744,-0.816429 -0.38706,0.38706 -0.147275,1.290326 0.342531,1.290326 0.176748,0 0.403195,-0.213254 0.503213,-0.473897 z m 3.125359,-0.282055 c 0.300321,-0.361866 0.300321,-0.545278 0,-0.907143 -0.493362,-0.594463 -1.097416,-0.577103 -1.333579,0.03833 -0.185033,0.482182 0.278036,1.322387 0.728817,1.322387 0.125582,0 0.397724,-0.204107 0.604762,-0.453571 z m 12.624363,-6.37524 c -0.28815,-0.288157 -0.86587,0.178586 -0.65112,0.526052 0.12764,0.206526 0.29678,0.20131 0.51394,-0.01584 0.17803,-0.178029 0.23976,-0.407618 0.13718,-0.510198 z m -2.95903,32.208529 c -0.26109,-0.48785 -0.22604,-0.79057 0.15967,-1.37924 0.68118,-1.03961 1.78105,-0.87649 1.91411,0.28388 0.17937,1.56431 -1.38155,2.38879 -2.07378,1.09536 z m -9.164896,-0.83508 c -0.620516,-0.68566 -0.637658,-1.63074 -0.05018,-2.7668 0.802528,-1.55191 2.425726,-1.46096 2.583696,0.14478 0.12854,1.30657 -0.0351,1.99039 -0.61491,2.57024 -0.750799,0.7508 -1.273237,0.7649 -1.918603,0.0518 z m -43.146762,-1.4404 c -0.336027,-0.88382 0.115446,-2.11889 0.968003,-2.6481 0.739787,-0.45921 1.461655,0.27266 1.461655,1.48191 0,1.82611 -1.842519,2.71048 -2.429658,1.16619 z m 43.251086,-4.60547 c 0,-0.1834 -0.563287,-0.87472 -1.251748,-1.53625 -1.194356,-1.147647 -1.242057,-1.262533 -1.040396,-2.505869 0.116244,-0.716691 0.24169,-1.729689 0.278771,-2.251102 0.09017,-1.267857 0.690281,-1.924595 1.758657,-1.924595 0.484414,0 1.215157,-0.219108 1.623867,-0.486906 1.084181,-0.71038 2.138401,-0.342449 2.544501,0.888057 0.18264,0.553399 0.7375,1.305929 1.23302,1.672282 0.99698,0.737098 1.19304,1.901199 0.49249,2.924165 -0.22465,0.328047 -0.49895,0.968926 -0.60956,1.424168 -0.11061,0.45525 -0.52859,1.0423 -0.92884,1.30455 -0.90189,0.59094 -4.100762,0.97435 -4.100762,0.4915 z m 2.267862,-3.988625 c 0,-0.535949 -0.1843,-0.778105 -0.64187,-0.843392 -0.768557,-0.109658 -1.190082,0.733304 -0.676276,1.352402 0.542156,0.653261 1.318146,0.35361 1.318146,-0.50901 z m 7.33584,-0.07145 c -0.78226,-0.602863 -0.81144,-2.021087 -0.0571,-2.775424 0.62244,-0.622439 0.91235,-0.599552 1.64149,0.129591 0.72477,0.724768 0.78423,1.894008 0.1296,2.548639 -0.5736,0.573599 -1.06003,0.601182 -1.71399,0.09719 z M 55.951112,93.366311 c -0.646796,-1.20855 -0.224551,-2.746097 0.922764,-3.360124 0.922334,-0.493618 1.485646,0.138572 1.485646,1.667311 0,1.92799 -1.658623,3.093798 -2.40841,1.692813 z m 49.663548,-0.918772 c -0.58172,-0.354687 -1.04892,-0.93326 -1.15893,-1.435179 -0.10137,-0.46251 -0.3075,-1.230754 -0.45806,-1.70721 -0.15057,-0.476455 -0.18196,-1.020741 -0.0698,-1.209523 0.49451,-0.832044 2.08225,-2.600691 2.33913,-2.605647 0.58839,-0.01137 2.9142,1.284387 3.17281,1.767616 0.24101,0.45033 0.42809,2.40971 0.35249,3.691672 -0.0287,0.486836 -2.22047,2.095688 -2.85221,2.093653 -0.19296,-6.05e-4 -0.78942,-0.268545 -1.32546,-0.595382 z m 1.59567,-2.756024 c 0.31161,-0.504196 -0.38923,-1.082376 -0.80637,-0.665239 -0.34892,0.348924 -0.13054,0.993966 0.33651,0.993966 0.14668,0 0.35812,-0.147928 0.46986,-0.328727 z M 82.184259,86.257504 c -0.380927,-0.406412 -1.069231,-0.880222 -1.529564,-1.052911 -0.992136,-0.372192 -1.430887,-1.369333 -1.430887,-3.251944 0,-1.200882 0.144196,-1.509885 1.133928,-2.429921 2.067173,-1.921607 2.373945,-2.051356 3.326191,-1.406801 0.457351,0.309572 1.206781,0.727302 1.665396,0.928292 0.925382,0.405544 1.480252,1.511248 1.232952,2.456927 -0.08878,0.339483 -0.0035,1.095813 0.189578,1.680742 0.425607,1.289609 0.04282,2.20736 -1.033329,2.477455 -0.398735,0.100076 -0.960181,0.44186 -1.247661,0.759524 -0.70612,0.780254 -1.474409,0.726506 -2.306604,-0.161363 z m 1.726453,-3.645595 c 0,-1.151104 -1.125864,-1.457398 -1.663618,-0.452592 -0.434857,0.812537 0.112561,1.581347 1.032395,1.449923 0.479731,-0.06854 0.631223,-0.307903 0.631223,-0.997331 z m -16.654323,2.728196 c -0.39083,-0.596483 -0.720534,-0.777721 -1.235665,-0.679248 -1.024989,0.19594 -1.353194,-0.418435 -1.273664,-2.384213 0.03883,-0.959945 -0.05578,-1.788021 -0.210249,-1.840173 -0.154474,-0.05215 -0.711998,-0.357674 -1.238945,-0.678945 -0.901555,-0.549659 -0.957475,-0.687856 -0.947768,-2.342252 0.01149,-1.957378 0.189983,-2.282292 1.818619,-3.310406 1.021086,-0.644585 1.102444,-0.789631 0.835986,-1.490466 -0.441542,-1.161345 -0.356643,-2.477875 0.188133,-2.917356 0.265823,-0.214445 0.870128,-0.785643 1.342898,-1.269332 l 0.859587,-0.879432 1.313044,0.501456 c 0.722173,0.275802 1.542726,0.501457 1.823454,0.501457 0.621108,0 1.118192,-1.63404 0.827874,-2.721429 -0.166582,-0.623921 -0.360832,-0.740446 -1.112194,-0.667167 -0.739212,0.07209 -1.064018,-0.112664 -1.727653,-0.982738 -0.649291,-0.851263 -1.025538,-1.071523 -1.83037,-1.071523 -0.848227,0 -1.120799,-0.182575 -1.675084,-1.122024 -0.596432,-1.010875 -0.624242,-1.23646 -0.28074,-2.277283 0.326339,-0.988815 0.308501,-1.307858 -0.12381,-2.214426 -0.916867,-1.922686 -0.42538,-3.506772 1.346563,-4.340056 0.826767,-0.388801 1.039882,-0.678736 1.12037,-1.524229 0.120447,-1.26522 -0.56287,-1.922977 -1.59144,-1.531914 -0.944977,0.35928 -4.393868,-0.09325 -4.727427,-0.620292 -0.149854,-0.23677 -0.274544,-0.682991 -0.27709,-0.991601 -0.0024,-0.308613 -0.344808,-0.96539 -0.760582,-1.459511 -0.877993,-1.043435 -0.959379,-2.077408 -0.257096,-3.26628 1.121292,-1.898193 -0.472966,-2.574197 -3.552474,-1.506334 -2.392943,0.829788 -2.526578,0.771002 -3.75168,-1.650373 -0.879073,-1.737457 -0.84667,-2.373432 0.196408,-3.854865 0.621218,-0.882284 2.987539,-1.940207 3.715207,-1.660975 0.25042,0.09609 1.068124,1.394908 1.817122,2.886251 1.394877,2.777366 2.054204,3.367308 3.123671,2.794948 0.306926,-0.164263 1.502691,-0.273854 2.657254,-0.243538 l 2.099207,0.05512 0.604762,1.221701 c 0.332619,0.671935 0.842887,1.552658 1.133929,1.957162 0.695688,0.966901 0.667406,2.033543 -0.08672,3.270469 l -0.613622,1.006478 0.61817,1.000222 c 0.663765,1.073993 1.316488,1.360717 3.112461,1.367221 0.928125,0.0034 1.206077,0.148249 1.49317,0.77835 0.276222,0.606238 0.553647,0.763609 1.278636,0.725315 1.430443,-0.07556 1.485537,-0.04974 2.231299,1.045512 0.643421,0.94495 0.669913,1.131646 0.324282,2.28526 -0.324424,1.082832 -0.306357,1.374787 0.130886,2.114979 0.99376,1.682299 0.201513,4.034875 -1.652805,4.908009 -1.158352,0.545425 -1.770879,1.690318 -1.770879,3.310001 0,1.236668 1.860819,3.246984 2.833421,3.061059 1.036326,-0.198104 1.702293,0.893636 1.702293,2.790632 0,1.502473 0.0215,1.53803 1.285119,2.124979 l 1.285119,0.596936 v 2.115875 2.115874 l -1.133112,0.605554 c -1.085448,0.580082 -1.133145,0.671501 -1.133929,2.173369 -0.0012,2.050987 -0.387933,2.998903 -1.319324,3.232667 -0.41682,0.104615 -0.842173,0.455882 -0.945231,0.780594 -0.168991,0.532438 -0.445489,0.584472 -2.817177,0.530161 -1.446388,-0.03312 -3.059403,0.05555 -3.584475,0.197053 -0.842437,0.227024 -1.017352,0.161619 -1.487742,-0.556284 z m 5.868301,-5.827601 c 0.366017,-0.711654 0.122322,-1.285119 -0.546109,-1.285119 -0.619415,0 -0.98138,0.682867 -0.721266,1.360714 0.235848,0.614611 0.933801,0.572979 1.267375,-0.07559 z m -3.599428,-1.243348 c 0.394051,-0.736292 -0.283007,-1.733269 -0.992251,-1.461105 -0.489089,0.187679 -0.69032,1.427897 -0.29571,1.822508 0.375397,0.375399 0.985214,0.204282 1.287961,-0.361403 z m 2.99378,-3.006628 c 0.141889,-1.000911 -0.464463,-1.639186 -1.188892,-1.251482 -0.560868,0.300167 -0.78346,1.486048 -0.358666,1.910842 0.452839,0.452839 1.450128,0.02794 1.547558,-0.65936 z M 69.796573,59.278039 c -0.147123,-0.758604 -0.853718,-0.862769 -0.853718,-0.125851 0,0.371423 0.195245,0.629959 0.475742,0.629959 0.28159,0 0.435846,-0.205731 0.377976,-0.504108 z m 2.774854,-1.176834 c 0,-0.239649 -0.204107,-0.435724 -0.453572,-0.435724 -0.455455,0 -0.621598,0.638323 -0.260205,0.999716 0.282194,0.282194 0.713777,-0.05882 0.713777,-0.563992 z m -1.965476,-2.102962 c 0,-0.84608 -0.885662,-0.752318 -1.007295,0.106637 -0.07766,0.548465 0.02416,0.683318 0.453572,0.600623 0.315071,-0.06068 0.553723,-0.3655 0.553723,-0.70726 z M 63.197617,44.360719 c 0,-0.16631 -0.136071,-0.302381 -0.302381,-0.302381 -0.166309,0 -0.302381,0.136071 -0.302381,0.302381 0,0.166309 0.136072,0.302381 0.302381,0.302381 0.16631,0 0.302381,-0.136072 0.302381,-0.302381 z m -5.677955,39.141188 c -0.878553,-0.615364 -0.914669,-2.310469 -0.06728,-3.157855 0.716879,-0.716879 0.910935,-0.738575 1.666225,-0.186294 0.731157,0.534633 0.719174,2.411969 -0.02062,3.229422 -0.639736,0.7069 -0.724127,0.713033 -1.578329,0.114727 z m 27.960837,-7.564701 c -2.193828,-2.581995 -2.54052,-2.850297 -3.683073,-2.850297 -1.780443,0 -2.328566,-0.445241 -2.093126,-1.700246 0.166355,-0.88675 0.08729,-1.141334 -0.477227,-1.536739 -0.558902,-0.391472 -0.64968,-0.674715 -0.521803,-1.628116 0.08515,-0.634809 0.440756,-1.555774 0.790245,-2.046584 0.787306,-1.105671 0.790614,-1.394883 0.02821,-2.465593 -0.333977,-0.469029 -0.69059,-1.269564 -0.792471,-1.77897 -0.160237,-0.801189 -0.07828,-0.966854 0.607233,-1.227486 0.562138,-0.213729 0.792461,-0.520092 0.792461,-1.054097 0,-1.0439 0.893285,-1.441616 2.699712,-1.201985 l 1.490859,0.197769 0.339713,-1.261594 c 0.467227,-1.735149 1.312675,-2.532219 2.426441,-2.287593 0.478342,0.105059 1.139976,0.04638 1.470303,-0.130408 0.890566,-0.476616 1.384959,-0.150692 2.287881,1.508273 0.963056,1.769449 1.593877,1.895363 2.730173,0.544951 1.012943,-1.203815 0.948908,-2.426701 -0.14032,-2.679642 -0.683172,-0.158648 -0.764688,-0.341966 -0.846706,-1.904114 -0.086,-1.638131 -0.14315,-1.750459 -1.092302,-2.147041 -0.917324,-0.383283 -1.01597,-0.554736 -1.173024,-2.038798 -0.167531,-1.583043 -0.144493,-1.644668 1.001362,-2.678653 1.100863,-0.993385 1.163507,-1.141839 1.020781,-2.419048 -0.144735,-1.295147 -0.0935,-1.408472 1.063325,-2.351836 1.190199,-0.970583 1.237685,-0.981804 2.291479,-0.5415 1.253285,0.523657 1.742389,0.403301 2.25523,-0.554955 0.595491,-1.112681 0.288547,-2.08514 -0.823441,-2.608837 -0.544612,-0.256488 -1.332529,-0.835525 -1.750928,-1.286749 -0.418398,-0.451225 -0.956189,-0.820409 -1.195091,-0.820409 -0.238899,0 -0.664784,-0.35167 -0.946416,-0.78149 -0.431349,-0.658326 -0.455207,-0.938693 -0.151366,-1.778949 0.220143,-0.608791 0.285889,-1.633854 0.168735,-2.630675 -0.212099,-1.804623 0.04135,-2.223487 1.595341,-2.636532 0.990612,-0.263302 1.239108,-1.151028 0.691962,-2.47196 -0.407697,-0.984264 -1.101353,-1.303495 -2.221484,-1.02236 -0.589978,0.148075 -0.93801,0.01029 -1.496698,-0.592547 -0.400379,-0.432017 -0.861362,-0.785486 -1.0244,-0.785486 -0.163041,0 -0.53776,-0.26666 -0.832712,-0.592578 -0.40138,-0.44352 -0.475243,-0.804811 -0.293636,-1.436309 0.133453,-0.464053 0.214872,-1.319982 0.180933,-1.902066 -0.07387,-1.266975 0.03619,-1.430333 1.682692,-2.497473 1.679149,-1.088301 2.324593,-1.046224 3.912653,0.255071 l 1.32262,1.083788 -0.156627,2.015616 c -0.08615,1.10859 -0.238228,2.654994 -0.337959,3.436454 -0.160891,1.260688 -0.0909,1.51126 0.620903,2.223067 0.528728,0.528728 1.008924,0.74818 1.408496,0.643689 0.414803,-0.108474 0.850356,0.115407 1.379181,0.708925 0.425107,0.477106 1.158977,0.952259 1.630827,1.055894 0.47185,0.103636 0.92144,0.417096 0.99908,0.69658 0.25091,0.903105 0.0424,5.935484 -0.26717,6.447568 -0.16509,0.273108 -0.77641,0.760037 -1.35849,1.082064 -0.824944,0.456382 -1.079827,0.804905 -1.155767,1.580368 -0.141693,1.446861 0.444726,2.586745 1.788127,3.475768 0.65006,0.430185 1.20025,1.018348 1.22265,1.30703 0.0224,0.288682 0.0564,0.923173 0.0756,1.409978 0.029,0.735132 0.20378,0.929352 1.03182,1.146261 1.09412,0.286608 1.15071,0.382533 1.37572,2.332043 0.1418,1.228465 0.0686,1.418378 -0.88224,2.289326 -0.89544,0.820196 -1.03687,1.141083 -1.03687,2.352651 0,0.919241 -0.16619,1.537341 -0.48205,1.792814 -0.26513,0.214445 -0.81209,0.718814 -1.21546,1.120817 -0.69652,0.694158 -0.81144,0.712911 -2.284638,0.372857 -1.317362,-0.304084 -1.660549,-0.286437 -2.276357,0.117055 -1.085088,0.710979 -1.956111,2.277348 -1.759261,3.163693 0.09234,0.415774 0.252721,1.278023 0.356401,1.916107 0.132355,0.814575 0.399046,1.256084 0.895314,1.482199 1.323155,0.602869 1.291814,2.287481 -0.076,4.08503 l -0.747346,0.982143 0.92208,1.340194 c 1.082696,1.573648 1.132629,2.005291 0.317316,2.743137 -0.332619,0.301017 -0.604762,0.839176 -0.604762,1.195913 0,1.029227 -0.603232,1.374273 -2.403929,1.375045 l -1.678214,6.04e-4 -0.86321,1.65205 c -0.907738,1.737266 -1.731606,2.279692 -2.497322,1.644205 -0.373894,-0.310306 -0.626515,-0.281828 -1.363916,0.153767 l -0.905026,0.534612 -0.965025,-1.135773 z m 3.397144,-6.437098 c 0.394051,-0.736291 -0.283007,-1.733268 -0.992251,-1.461104 -0.489089,0.187678 -0.690321,1.427897 -0.29571,1.822507 0.375396,0.3754 0.985214,0.204283 1.287961,-0.361403 z M 86.17531,65.984885 c 0.523433,-0.630698 0.135811,-1.969405 -0.570239,-1.969405 -0.817384,0 -1.339487,0.775106 -1.117603,1.659168 0.215525,0.85871 1.098027,1.020919 1.687842,0.310237 z m 4.387783,-1.180496 c 0,-0.9677 -0.707435,-1.593027 -1.470805,-1.300093 -0.582355,0.223469 -0.656324,1.438103 -0.120227,1.9742 0.205946,0.205946 0.648178,0.335214 0.982739,0.287262 0.449093,-0.06437 0.608293,-0.31597 0.608293,-0.961369 z m 8.920238,-15.605575 c 0,-0.332619 -0.196076,-0.604762 -0.435725,-0.604762 -0.534183,0 -0.875713,0.49761 -0.622608,0.907143 0.328836,0.532069 1.058333,0.323641 1.058333,-0.302381 z m -3.175,-0.907143 c 0,-0.388054 -0.170016,-0.762227 -0.377816,-0.831493 -0.463568,-0.154523 -0.811793,0.658005 -0.561518,1.310211 0.266008,0.693208 0.939334,0.350057 0.939334,-0.478718 z m 2.419048,-2.419047 c 0,-0.861977 -0.954399,-1.227458 -1.242789,-0.475921 -0.275106,0.716912 0.114149,1.440948 0.712709,1.325675 0.334742,-0.06446 0.53008,-0.377605 0.53008,-0.849754 z M 54.741588,74.921073 c -0.494988,-0.924899 -0.370005,-1.734188 0.407404,-2.63798 0.644918,-0.749766 0.802495,-0.800146 1.503562,-0.480717 1.017276,0.463502 1.283426,1.568886 0.665477,2.763871 -0.376458,0.727985 -0.686184,0.939709 -1.374684,0.939709 -0.569196,0 -1.001283,-0.21029 -1.201759,-0.584883 z m 46.941232,-0.420908 c -0.90373,-0.202689 -1.32941,-0.473686 -1.45383,-0.925528 -0.0968,-0.351406 -0.39503,-1.154076 -0.662809,-1.783712 -0.44952,-1.056954 -0.448298,-1.225695 0.01591,-2.199132 0.547059,-1.147197 1.482559,-1.64536 3.089789,-1.64536 0.89843,0 1.11184,0.155499 1.64342,1.197477 0.76658,1.502633 0.76784,2.301817 0.006,4.023326 -0.70738,1.599148 -0.93629,1.714776 -2.63881,1.332929 z m 0.90577,-2.698375 c 0.19358,-0.554972 -0.087,-1.133929 -0.54953,-1.133929 -0.54273,0 -0.78384,0.444809 -0.55888,1.031047 0.21962,0.57231 0.92192,0.6375 1.10841,0.102882 z m -43.887886,-3.36225 -1.288266,-1.312647 0.215201,-1.902128 c 0.237511,-2.099331 0.869684,-3.02357 2.068092,-3.02357 0.402297,0 1.140267,-0.23463 1.639933,-0.521399 0.867619,-0.497946 0.936731,-0.495838 1.53641,0.04687 0.345358,0.312544 0.627924,0.727562 0.627924,0.922259 0,0.1947 0.351098,0.683838 0.780219,1.086975 0.824795,0.774857 0.844054,1.179337 0.177307,3.723918 -0.415729,1.586587 -0.820535,1.892633 -2.788636,2.108291 -1.671831,0.183194 -1.686122,0.177764 -2.968184,-1.128565 z m 3.179518,-2.160052 c 0.09654,-0.251584 0.0018,-0.666626 -0.2103,-0.922319 -0.339776,-0.409406 -0.438984,-0.411743 -0.83113,-0.01959 -0.526116,0.526109 -0.280655,1.399334 0.393349,1.399334 0.259903,0 0.55154,-0.20584 0.648081,-0.457421 z m 49.594018,-0.700317 c -0.58444,-0.645798 -0.6433,-1.634414 -0.15279,-2.566307 0.44145,-0.838669 0.84332,-1.103615 1.68279,-1.109421 1.43604,-0.0099 1.66798,2.814759 0.30926,3.766442 -0.85842,0.601264 -1.22959,0.582957 -1.83926,-0.09071 z m -9.94596,-1.847369 -1.43243,-1.429376 0.0989,-2.117804 c 0.10943,-2.343543 0.28723,-2.821522 1.04961,-2.821522 0.28368,0 1.02355,-0.272143 1.64415,-0.604762 0.6206,-0.332619 1.31322,-0.604762 1.53916,-0.604762 0.22594,0 1.12539,0.755568 1.99877,1.679043 1.36009,1.438087 1.55856,1.796088 1.38301,2.494642 -0.11273,0.44858 -0.27888,1.29185 -0.36921,1.873934 -0.1994,1.28494 -0.83464,2.065247 -2.12635,2.611972 -1.54581,0.654268 -2.24698,0.453977 -3.7856,-1.081365 z m 3.09553,-2.891322 c 0,-0.96178 -0.76249,-1.554821 -1.36072,-1.058333 -0.6153,0.510655 -0.57327,1.717246 0.0724,2.078582 0.67755,0.379177 1.28832,-0.1045 1.28832,-1.020249 z M 58.583411,58.244401 c -0.534637,-0.311331 -1.433413,-2.113924 -1.433413,-2.874866 0,-0.224291 0.439777,-1.031718 0.97728,-1.794283 0.772188,-1.095508 1.105345,-1.346381 1.5875,-1.195418 0.335622,0.105087 1.018434,0.288302 1.517363,0.407147 0.780297,0.185868 0.965082,0.432499 1.321502,1.763797 l 0.414355,1.547716 -0.994132,1.237065 c -0.781645,0.972656 -1.193364,1.235099 -1.92626,1.227869 -0.512672,-0.0051 -1.17156,-0.14862 -1.464195,-0.319027 z m 1.892778,-2.52655 c 0,-0.07334 -0.136072,-0.217442 -0.302381,-0.320228 -0.16631,-0.102785 -0.302381,-0.04278 -0.302381,0.133344 0,0.176125 0.136071,0.320228 0.302381,0.320228 0.166309,0 0.302381,-0.06 0.302381,-0.133344 z m 47.628861,-1.977073 c -0.2666,-0.431364 0.39444,-1.518155 0.92341,-1.518155 0.24883,0 0.53141,0.20584 0.62795,0.457421 0.33417,0.870821 -1.07377,1.83349 -1.55136,1.060734 z M 83.910712,52.827385 c -0.301017,-0.332619 -0.849729,-0.604762 -1.219363,-0.604762 -0.871084,0 -1.241597,-0.474493 -1.662124,-2.128571 -0.725143,-2.852226 -0.719616,-2.954809 0.20704,-3.841529 0.479056,-0.45841 1.109829,-1.207667 1.401723,-1.665018 0.63542,-0.99561 1.698567,-1.092742 2.482248,-0.226786 0.338068,0.373561 0.931324,0.604762 1.551798,0.604762 1.240179,0 2.08329,1.081347 1.827587,2.344011 -0.09256,0.457043 -0.01542,1.266499 0.17139,1.798789 0.426158,1.214214 -0.04228,2.397754 -1.109626,2.803558 -0.407706,0.15501 -0.890415,0.560494 -1.072688,0.901071 -0.432522,0.808177 -1.852479,0.816148 -2.577985,0.01448 z m 1.485178,-3.716491 c 0.472403,-0.748916 -0.497106,-1.690679 -1.16762,-1.134198 -0.563161,0.467378 -0.598243,0.971671 -0.102111,1.467802 0.444829,0.44483 0.845031,0.339683 1.269731,-0.333604 z m -9.498273,-0.305175 c 0,-0.837532 0.525466,-1.421191 1.279489,-1.421191 0.718133,0 0.97305,0.693021 0.547442,1.488277 -0.48575,0.907633 -1.826931,0.858384 -1.826931,-0.06709 z M 70.1215,47.289336 c -0.983926,-0.670297 -1.023339,-0.769578 -0.930329,-2.343453 0.106595,-1.803768 0.807375,-2.819652 2.17397,-3.151487 1.155023,-0.280462 2.71819,1.35666 2.71819,2.84679 0,1.245565 -0.316341,1.744463 -1.709773,2.696455 -1.164052,0.795277 -1.008885,0.798606 -2.252058,-0.0483 z m 1.79174,-2.424509 c 0.05787,-0.298377 -0.09639,-0.504108 -0.377976,-0.504108 -0.280498,0 -0.475742,0.258536 -0.475742,0.629959 0,0.736918 0.706595,0.632753 0.853718,-0.125851 z m 5.621111,-2.165001 c -0.807016,-1.231659 0.05131,-3.177202 1.401705,-3.177202 0.795413,0 1.609664,1.325333 1.378966,2.244509 -0.426802,1.700511 -1.94411,2.209447 -2.780671,0.932693 z m 9.279473,-2.275954 c -0.804083,-1.110001 -0.905647,-1.456314 -0.741974,-2.529954 0.243381,-1.596484 0.61296,-2.302247 1.205587,-2.302247 0.260057,0 0.947396,-0.225196 1.52742,-0.500435 l 1.05459,-0.500436 1.334561,1.43302 c 0.734009,0.78816 1.334561,1.498057 1.334561,1.577547 0,0.507332 -1.03231,3.16061 -1.323829,3.40255 -0.194912,0.161761 -1.052994,0.386786 -1.906848,0.500054 l -1.552466,0.205942 z m 2.706908,-1.959582 c -0.02371,-0.44882 -0.7002,-0.366366 -0.857144,0.104474 -0.08478,0.254339 0.05345,0.367691 0.368747,0.302381 0.277404,-0.05746 0.497181,-0.240545 0.488397,-0.406855 z m 13.462528,-0.71145 -0.74358,-1.467402 0.77788,-1.178431 c 1.05964,-1.605278 1.5387,-1.934383 2.81577,-1.934383 1.43659,0 1.95335,0.462196 2.40416,2.150304 0.33533,1.255637 0.30885,1.518856 -0.26609,2.645834 l -0.63846,1.251481 h -1.80304 -1.80305 z m 3.00945,-0.964891 c 0.10729,-0.173594 0.0249,-0.520602 -0.18297,-0.771128 -0.33074,-0.398518 -0.43304,-0.400491 -0.81776,-0.01577 -0.24185,0.241852 -0.34757,0.58886 -0.23492,0.771128 0.25964,0.420103 0.98007,0.429298 1.23565,0.01577 z"
         id="path4829"
         inkscape:connector-curvature="0" />
    </g>
  </g>
</svg>
