<?xml version="1.0" encoding="UTF-8" standalone="no"?>
<!-- Created with Inkscape (http://www.inkscape.org/) -->

<svg
   xmlns:dc="http://purl.org/dc/elements/1.1/"
   xmlns:cc="http://creativecommons.org/ns#"
   xmlns:rdf="http://www.w3.org/1999/02/22-rdf-syntax-ns#"
   xmlns:svg="http://www.w3.org/2000/svg"
   xmlns="http://www.w3.org/2000/svg"
   xmlns:sodipodi="http://sodipodi.sourceforge.net/DTD/sodipodi-0.dtd"
   xmlns:inkscape="http://www.inkscape.org/namespaces/inkscape"
   width="210mm"
   height="297mm"
   viewBox="0 0 210 297"
   version="1.1"
   id="svg8"
   inkscape:version="0.92.2 5c3e80d, 2017-08-06"
   sodipodi:docname="dwg2.svg">
  <defs
     id="defs2" />
  <sodipodi:namedview
     id="base"
     pagecolor="#ffffff"
     bordercolor="#666666"
     borderopacity="1.0"
     inkscape:pageopacity="0.0"
     inkscape:pageshadow="2"
     inkscape:zoom="0.35"
     inkscape:cx="-146.87787"
     inkscape:cy="612.54869"
     inkscape:document-units="mm"
     inkscape:current-layer="layer1"
     showgrid="false"
     inkscape:window-width="1304"
     inkscape:window-height="741"
     inkscape:window-x="62"
     inkscape:window-y="27"
     inkscape:window-maximized="1" />
  <metadata
     id="metadata5">
    <rdf:RDF>
      <cc:Work
         rdf:about="">
        <dc:format>image/svg+xml</dc:format>
        <dc:type
           rdf:resource="http://purl.org/dc/dcmitype/StillImage" />
        <dc:title></dc:title>
      </cc:Work>
    </rdf:RDF>
  </metadata>
  <g
     inkscape:label="Layer 1"
     inkscape:groupmode="layer"
     id="layer1">
    <g
       id="g4752" />
    <g
       id="g4791"
       transform="translate(-37.797615,86.178571)">
      <path
         style="fill:#333333;stroke-width:0.38484848"
         d="m 109.37947,67.564772 c -1.64627,-7.25203 -1.85965,-15.88717 -0.6137,-24.83514 0.44496,-3.19549 0.7061,-5.91289 0.58033,-6.03866 -0.12578,-0.12577 -1.93596,1.42799 -4.02263,3.4528 -4.8711,4.72671 -6.90326,5.81219 -10.500561,5.60893 -2.140212,-0.12093 -2.910059,-0.35666 -4.263951,-1.30563 -2.077312,-1.45603 -2.257487,-2.6584 -0.904969,-6.03917 0.541528,-1.3536 0.984596,-2.57739 0.984596,-2.71954 0,-0.6562 -1.64543,-0.13503 -3.487635,1.10468 -1.114072,0.74972 -2.282099,1.31256 -2.595614,1.25076 -0.313516,-0.0618 -0.932414,-0.59819 -1.37533,-1.19198 -0.781386,-1.04755 -0.785098,-1.11481 -0.124982,-2.265 0.824412,-1.43645 0.667095,-1.63982 -1.184057,-1.53059 -1.378492,0.0813 -1.544395,-0.0531 -4.246751,-3.44208 -3.148101,-3.94795 -3.188411,-4.58224 -0.244095,-3.84085 2.037972,0.51317 4.930373,1.91295 9.302047,4.50174 6.113995,3.62055 10.684494,5.53973 13.192781,5.53973 1.520111,0 5.058031,-1.13905 4.805761,-1.54723 -0.12104,-0.19585 -0.94879,-0.54983 -1.83944,-0.78661 -2.60769,-0.69326 -4.141782,-1.84893 -4.985098,-3.75539 -0.931799,-2.10648 -0.770062,-4.14789 0.725385,-9.15559 0.561777,-1.88118 1.407585,-4.71207 1.879573,-6.29085 0.47199,-1.57879 1.05519,-2.9362 1.29601,-3.01647 0.82268,-0.27423 1.54229,2.49552 2.14476,8.25507 0.67592,6.46173 0.98218,7.81034 2.16265,9.5231 0.93716,1.35974 3.3171,3.31034 4.03897,3.31034 0.51462,0 0.84181,-1.28413 2.1857,-8.57817 0.80723,-4.38125 0.81481,-4.65769 0.20835,-7.59062 -1.76217,-8.52201 -7.64227,-14.452804 -14.792591,-14.92011 -2.357312,-0.154061 -3.049781,-0.04104 -4.87877,0.796301 -4.661398,2.134058 -5.806768,7.220149 -2.316137,10.284969 1.605873,1.40997 1.489967,1.79512 -0.310951,1.03329 -1.589843,-0.67255 -2.42276,-1.58002 -3.23544,-3.52504 -1.688358,-4.040808 1.413526,-8.690019 6.697576,-10.038555 6.064065,-1.547603 13.429293,1.991101 17.549343,8.431765 0.75716,1.18364 1.54675,2.59944 1.75463,3.14622 0.76929,2.02339 1.14911,0.47288 1.14911,-4.690949 0,-5.974699 -0.99562,-11.831978 -2.53072,-14.88829 -1.458,-2.902803 -4.75832,-7.508385 -7.09049,-9.89473 -2.43454,-2.491091 -4.736323,-4.035844 -7.49379,-5.029158 -1.064249,-0.383372 -1.71852,-0.703287 -1.453937,-0.710923 1.174435,-0.0339 0.307142,-0.80541 -1.513032,-1.345944 -8.426918,-2.502526 -17.240438,2.703283 -17.240961,10.183576 -2.3e-4,3.293408 1.584571,5.757279 4.700579,7.307933 l 2.411747,1.200184 -2.226369,-0.149719 c -1.686468,-0.113411 -2.61753,-0.424636 -3.83938,-1.283385 -6.063464,-4.261562 -5.195558,-13.225039 1.728221,-17.84856 5.963149,-3.982038 15.44901,-3.292062 22.907332,1.666217 1.4852,0.987365 2.80697,1.795208 2.93726,1.795208 0.13028,0 0.23688,-0.932612 0.23688,-2.072472 0,-5.66419 4.23375,-10.973702 8.77441,-11.003924 1.54109,-0.01026 3.28279,0.840134 4.09465,1.999224 0.66934,0.955622 0.8129,3.588438 0.21579,3.957476 -0.21756,0.134454 -0.38485,-0.182392 -0.38485,-0.728877 0,-1.454357 -0.70946,-2.725646 -1.9202,-3.440852 -2.92682,-1.728911 -7.31992,0.539763 -9.09583,4.697249 -0.68307,1.599077 -0.82123,6.282832 -0.22908,7.766027 0.2155,0.539784 1.3637,2.271602 2.55156,3.848485 4.83457,6.417884 7.90382,15.647592 7.92819,23.841301 0.0112,3.763113 0.27599,3.834993 2.98426,0.810073 4.3982,-4.912419 10.05708,-8.38467 16.44625,-10.091315 4.52933,-1.209855 11.63421,-1.206116 15.58636,0.0082 3.5831,1.100925 5.69681,2.319734 7.51699,4.334453 2.55839,2.831835 3.13548,5.626442 1.73055,8.380332 -1.51545,2.97053 -4.54732,4.64008 -8.42628,4.64008 -2.50573,0 -2.56999,-0.59172 -0.0999,-0.9194 3.39164,-0.44991 6.20587,-3.33858 6.20587,-6.37001 0,-3.986641 -5.10367,-8.081771 -10.93248,-8.772107 -1.5784,-0.186937 -1.86001,-0.128541 -1.67722,0.347794 0.19234,0.501246 -0.0255,0.508867 -1.75101,0.06127 -3.68604,-0.956148 -7.37084,-0.407513 -12.12494,1.805301 -2.43855,1.135032 -2.82877,1.916846 -0.95675,1.916846 4.6207,0 8.62591,4.266565 7.42399,7.908426 -0.48575,1.47183 -2.01969,2.86733 -3.15181,2.86733 -0.61249,0 -0.50045,-0.23082 0.62918,-1.2962 1.09234,-1.03021 1.37437,-1.58695 1.37437,-2.71305 0,-2.04096 -0.91137,-3.512762 -2.89501,-4.675251 -1.97187,-1.155592 -5.12016,-1.399432 -7.5813,-0.587182 -2.27002,0.749173 -6.11332,5.200643 -8.35337,9.675233 -1.96987,3.93488 -2.11632,4.467 -3.69357,13.42051 -1.06435,6.04197 -1.01603,6.29581 1.10703,5.81492 3.04889,-0.69059 4.26416,-1.81432 8.64649,-7.99518 3.64092,-5.13517 6.69888,-7.80236 6.06923,-5.29365 -0.13283,0.52924 -0.77573,3.33939 -1.42868,6.24477 -1.44039,6.40932 -2.32217,8.75592 -3.9107,10.40721 -1.69827,1.76537 -3.49707,2.1732 -6.51254,1.47656 -1.32953,-0.30715 -2.49332,-0.48245 -2.58622,-0.38955 -0.38689,0.38689 1.51888,2.356 3.35612,3.46767 2.75283,1.66567 5.33408,2.07535 13.13231,2.08426 8.89102,0.0102 13.30149,0.68745 13.76348,2.11354 0.0694,0.2142 -1.30328,0.87115 -3.05037,1.45988 l -3.17654,1.07043 -1.52455,-0.7864 c -2.03749,-1.05098 -2.68208,-1.02903 -2.33507,0.0795 0.61739,1.9723 0.45813,2.30767 -1.47641,3.10911 -1.47379,0.61055 -2.00632,0.68012 -2.50152,0.32679 -3.06203,-2.18482 -6.6119,-3.64276 -7.26918,-2.98548 -0.1398,0.1398 0.0487,0.72343 0.41879,1.29695 2.61472,4.05156 2.37376,4.50642 -2.38728,4.50642 -2.96183,0 -3.55057,-0.11784 -4.80705,-0.96212 -1.94512,-1.30701 -3.47171,-3.70715 -4.69584,-7.38289 -0.56344,-1.69185 -1.16484,-2.93088 -1.33645,-2.75342 -0.39756,0.41113 -1.41243,5.35611 -2.11896,10.32471 -0.30131,2.11887 -0.56318,6.62341 -0.58193,10.01008 -0.0415,7.48443 -0.38034,8.83947 -1.25124,5.00303 z m -5.11415,0.38485 c -0.58398,-0.89126 -0.58398,-1.03298 0,-1.92424 1.07233,-1.63659 3.3066,-0.98649 3.3066,0.96212 0,1.94861 -2.23427,2.59871 -3.3066,0.96212 z m 9.48175,-2.67276 c -0.25383,-0.30584 -0.40492,-0.95528 -0.33575,-1.44318 0.097,-0.68462 0.40821,-0.91439 1.3633,-1.0067 1.06884,-0.10331 1.27333,0.0229 1.49994,0.92579 0.40678,1.62076 -1.49534,2.76775 -2.52749,1.52409 z m -13.08743,-2.98011 c -2.318592,-2.48871 1.42919,-6.18021 3.83349,-3.77592 0.98273,0.98273 1.01811,3.11954 0.0659,3.98126 -1.00736,0.91165 -2.95429,0.80912 -3.8994,-0.20534 z m 12.38579,-4.75986 c -1.74659,-1.22336 -0.66251,-4.01909 1.55845,-4.01909 1.07779,0 2.2044,1.22389 2.2044,2.39473 0,0.88223 -1.34122,2.22345 -2.22346,2.22345 -0.37623,0 -1.06896,-0.26959 -1.53939,-0.59909 z m -12.20836,-3.59864 c -1.437125,-0.6154 -2.291598,-1.94631 -2.291598,-3.56936 0,-1.26002 0.232213,-1.75552 1.248083,-2.6632 0.686445,-0.61334 1.670155,-1.11516 2.186025,-1.11516 2.2414,0 4.05294,1.79491 4.05294,4.01572 0,2.13352 -3.20066,4.18619 -5.19545,3.332 z m 44.64242,-42.75378 c -0.13081,-0.21167 -0.0545,-0.38485 0.16972,-0.38485 0.22415,0 0.40756,0.17318 0.40756,0.38485 0,0.21167 -0.0764,0.38485 -0.16971,0.38485 -0.0933,0 -0.27675,-0.17318 -0.40757,-0.38485 z m 2.66086,-0.11885 c 2.05171,-1.27686 2.97305,-2.42797 3.18029,-3.9734 0.29799,-2.222126 -0.46407,-4.195992 -2.32541,-6.023242 l -1.59149,-1.562342 1.30771,0.739674 c 1.97059,1.114609 3.5029,3.752187 3.5029,6.029586 0,1.027404 -0.26271,2.376024 -0.58379,2.996924 -0.61378,1.18692 -2.3627,2.31215 -3.53423,2.27386 -0.64425,-0.0211 -0.64118,-0.0546 0.044,-0.48106 z m -51.26722,-0.34297 c -0.652354,-0.65235 -0.573301,-1.82865 0.141323,-2.10288 0.880669,-0.33794 1.455864,0.43597 1.170138,1.5744 -0.273788,1.09086 -0.612565,1.22738 -1.311461,0.52848 z m 47.26139,-1.64881 c -0.5349,-1.62075 -0.23352,-2.767049 0.81497,-3.099827 0.83778,-0.265904 2.26182,0.731701 2.26182,1.584517 0,0.57493 -1.84778,2.85624 -2.31345,2.85624 -0.17644,0 -0.51994,-0.60342 -0.76334,-1.34093 z m -12.31715,0.37881 c 0,-0.3175 0.25978,-0.57727 0.57728,-0.57727 0.3175,0 0.57727,0.25977 0.57727,0.57727 0,0.3175 -0.25977,0.57727 -0.57727,0.57727 -0.3175,0 -0.57728,-0.25977 -0.57728,-0.57727 z M 89.195403,-11.115021 c -1.399858,-1.167808 -0.866258,-3.485357 0.80248,-3.485357 1.672551,0 2.224364,1.331065 1.348625,3.253104 -0.528046,1.158934 -0.981588,1.207902 -2.151105,0.232253 z m -4.577163,-1.681197 c -1.157296,-1.060583 -1.421982,-1.598513 -1.576186,-3.203348 -0.460017,-4.78749 3.980439,-8.341064 10.213201,-8.173342 1.645766,0.04429 1.569939,0.07938 -0.839918,0.388739 -4.945142,0.634814 -8.319177,3.486003 -8.319177,7.030025 0,1.649258 0.456881,2.679663 1.850844,4.174221 1.390313,1.490644 0.34884,1.321115 -1.328764,-0.216295 z m 28.55042,-16.016961 c -0.26288,-0.425347 0.34421,-0.884633 0.69958,-0.529261 0.36591,0.365908 0.29772,0.887517 -0.11603,0.887517 -0.19918,0 -0.46177,-0.161216 -0.58355,-0.358256 z"
         id="path4793"
         inkscape:connector-curvature="0" />
    </g>
  </g>
</svg>
